<svg width="60" height="60" viewBox="0 0 60 60" fill="none" xmlns="http://www.w3.org/2000/svg">
<path d="M57.8 14.275L50.725 7.2C49.3198 5.79308 47.4135 5.00175 45.425 5H29.575C27.5865 5.00175 25.6802 5.79308 24.275 7.2L17.2 14.275C15.7931 15.6802 15.0018 17.5865 15 19.575V42.5C15 44.4891 15.7902 46.3968 17.1967 47.8033C18.6032 49.2098 20.5109 50 22.5 50H52.5C54.4891 50 56.3968 49.2098 57.8033 47.8033C59.2098 46.3968 60 44.4891 60 42.5V19.575C59.9982 17.5865 59.2069 15.6802 57.8 14.275ZM27.8 10.725C28.2791 10.2682 28.9131 10.0092 29.575 10H45.425C46.0869 10.0092 46.7209 10.2682 47.2 10.725L51.475 15H23.525L27.8 10.725ZM52.5 45H22.5C21.837 45 21.2011 44.7366 20.7322 44.2678C20.2634 43.7989 20 43.163 20 42.5V20H55V42.5C55 43.163 54.7366 43.7989 54.2678 44.2678C53.7989 44.7366 53.163 45 52.5 45Z" fill="black"/>
<path d="M45.5 24C44.837 24 44.2011 24.2634 43.7322 24.7322C43.2634 25.2011 43 25.837 43 26.5C43 27.8261 42.4732 29.0979 41.5355 30.0355C40.5979 30.9732 39.3261 31.5 38 31.5C36.6739 31.5 35.4021 30.9732 34.4645 30.0355C33.5268 29.0979 33 27.8261 33 26.5C33 25.837 32.7366 25.2011 32.2678 24.7322C31.7989 24.2634 31.163 24 30.5 24C29.837 24 29.2011 24.2634 28.7322 24.7322C28.2634 25.2011 28 25.837 28 26.5C28 29.1522 29.0536 31.6957 30.9289 33.5711C32.8043 35.4464 35.3478 36.5 38 36.5C40.6522 36.5 43.1957 35.4464 45.0711 33.5711C46.9464 31.6957 48 29.1522 48 26.5C48 25.837 47.7366 25.2011 47.2678 24.7322C46.7989 24.2634 46.163 24 45.5 24Z" fill="black"/>
</svg>
