<svg width="130" height="130" viewBox="0 0 130 130" fill="none" xmlns="http://www.w3.org/2000/svg">
<g filter="url(#filter0_d_84_293)">
<rect x="15" y="5" width="100" height="100" rx="15" fill="#0065FC"/>
</g>
<path d="M88.1667 44.8957L82.2708 38.9998C81.0999 37.8274 79.5112 37.168 77.8542 37.1665H64.6458C62.9888 37.168 61.4001 37.8274 60.2292 38.9998L54.3333 44.8957C53.1609 46.0666 52.5015 47.6553 52.5 49.3123V68.4165C52.5 70.0741 53.1585 71.6638 54.3306 72.8359C55.5027 74.008 57.0924 74.6665 58.75 74.6665H83.75C85.4076 74.6665 86.9973 74.008 88.1694 72.8359C89.3415 71.6638 90 70.0741 90 68.4165V49.3123C89.9985 47.6553 89.3391 46.0666 88.1667 44.8957ZM63.1667 41.9373C63.5659 41.5566 64.0942 41.3408 64.6458 41.3332H77.8542C78.4058 41.3408 78.9341 41.5566 79.3333 41.9373L82.8958 45.4998H59.6042L63.1667 41.9373ZM83.75 70.4998H58.75C58.1975 70.4998 57.6676 70.2803 57.2769 69.8896C56.8862 69.4989 56.6667 68.969 56.6667 68.4165V49.6665H85.8333V68.4165C85.8333 68.969 85.6138 69.4989 85.2231 69.8896C84.8324 70.2803 84.3025 70.4998 83.75 70.4998Z" fill="white"/>
<path d="M77.9163 53C77.3638 53 76.8339 53.2195 76.4432 53.6102C76.0525 54.0009 75.833 54.5308 75.833 55.0833C75.833 56.1884 75.394 57.2482 74.6126 58.0296C73.8312 58.811 72.7714 59.25 71.6663 59.25C70.5613 59.25 69.5015 58.811 68.7201 58.0296C67.9387 57.2482 67.4997 56.1884 67.4997 55.0833C67.4997 54.5308 67.2802 54.0009 66.8895 53.6102C66.4988 53.2195 65.9689 53 65.4163 53C64.8638 53 64.3339 53.2195 63.9432 53.6102C63.5525 54.0009 63.333 54.5308 63.333 55.0833C63.333 57.2935 64.211 59.4131 65.7738 60.9759C67.3366 62.5387 69.4562 63.4167 71.6663 63.4167C73.8765 63.4167 75.9961 62.5387 77.5589 60.9759C79.1217 59.4131 79.9997 57.2935 79.9997 55.0833C79.9997 54.5308 79.7802 54.0009 79.3895 53.6102C78.9988 53.2195 78.4689 53 77.9163 53Z" fill="white"/>
<defs>
<filter id="filter0_d_84_293" x="0" y="0" width="130" height="130" filterUnits="userSpaceOnUse" color-interpolation-filters="sRGB">
<feFlood flood-opacity="0" result="BackgroundImageFix"/>
<feColorMatrix in="SourceAlpha" type="matrix" values="0 0 0 0 0 0 0 0 0 0 0 0 0 0 0 0 0 0 127 0" result="hardAlpha"/>
<feOffset dy="10"/>
<feGaussianBlur stdDeviation="7.5"/>
<feComposite in2="hardAlpha" operator="out"/>
<feColorMatrix type="matrix" values="0 0 0 0 0 0 0 0 0 0 0 0 0 0 0 0 0 0 0.25 0"/>
<feBlend mode="normal" in2="BackgroundImageFix" result="effect1_dropShadow_84_293"/>
<feBlend mode="normal" in="SourceGraphic" in2="effect1_dropShadow_84_293" result="shape"/>
</filter>
</defs>
</svg>
