<svg width="50" height="48" viewBox="0 0 50 48" fill="none" xmlns="http://www.w3.org/2000/svg">
<path d="M50 0H0V15H2.5V42.5C2.5 43.8261 3.02678 45.0979 3.96447 46.0355C4.90215 46.9732 6.17392 47.5 7.5 47.5H42.5C43.8261 47.5 45.0979 46.9732 46.0355 46.0355C46.9732 45.0979 47.5 43.8261 47.5 42.5V15H50V0ZM5 5H45V10H5V5ZM42.5 42.5H7.5V15H42.5V42.5ZM17.5 20H32.5C32.5 21.3261 31.9732 22.5979 31.0355 23.5355C30.0979 24.4732 28.8261 25 27.5 25H22.5C21.1739 25 19.9021 24.4732 18.9645 23.5355C18.0268 22.5979 17.5 21.3261 17.5 20Z" fill="black"/>
</svg>
