<svg width="60" height="60" viewBox="0 0 60 60" fill="none" xmlns="http://www.w3.org/2000/svg">
<path d="M17.9914 60C16.3422 60 14.9309 59.441 13.7574 58.3229C12.582 57.2029 11.9943 55.8571 11.9943 54.2857C11.9943 52.7143 12.582 51.3686 13.7574 50.2486C14.9309 49.1305 16.3422 48.5714 17.9914 48.5714C19.6406 48.5714 21.0519 49.1305 22.2254 50.2486C23.4008 51.3686 23.9885 52.7143 23.9885 54.2857C23.9885 55.8571 23.4008 57.2029 22.2254 58.3229C21.0519 59.441 19.6406 60 17.9914 60ZM47.9771 60C46.3278 60 44.9165 59.441 43.7431 58.3229C42.5676 57.2029 41.9799 55.8571 41.9799 54.2857C41.9799 52.7143 42.5676 51.3686 43.7431 50.2486C44.9165 49.1305 46.3278 48.5714 47.9771 48.5714C49.6263 48.5714 51.0386 49.1305 52.214 50.2486C53.3875 51.3686 53.9742 52.7143 53.9742 54.2857C53.9742 55.8571 53.3875 57.2029 52.214 58.3229C51.0386 59.441 49.6263 60 47.9771 60ZM32.9842 24.2857C32.1346 24.2857 31.423 24.0114 30.8492 23.4629C30.2735 22.9162 29.9857 22.2381 29.9857 21.4286C29.9857 20.619 30.2735 19.94 30.8492 19.3914C31.423 18.8448 32.1346 18.5714 32.9842 18.5714C33.8338 18.5714 34.5465 18.8448 35.1222 19.3914C35.6959 19.94 35.9828 20.619 35.9828 21.4286C35.9828 22.2381 35.6959 22.9162 35.1222 23.4629C34.5465 24.0114 33.8338 24.2857 32.9842 24.2857ZM29.9857 14.2857V0H35.9828V14.2857H29.9857ZM17.9914 45.7143C15.6925 45.7143 13.9563 44.7733 12.7829 42.8914C11.6074 41.0114 11.5945 39.1429 12.7439 37.2857L16.792 30.2857L5.99713 8.57143H2.99857C2.14897 8.57143 1.43731 8.29714 0.863587 7.74857C0.287862 7.2019 0 6.52381 0 5.71429C0 4.90476 0.287862 4.22571 0.863587 3.67714C1.43731 3.13048 2.14897 2.85714 2.99857 2.85714H7.87124C8.42097 2.85714 8.94572 3 9.44548 3.28571C9.94524 3.57143 10.3201 3.97619 10.5699 4.5L22.6392 28.5714H43.6291L54.349 10.0714C54.5989 9.59524 54.9617 9.22571 55.4375 8.96286C55.9113 8.70191 56.423 8.57143 56.9728 8.57143C58.1222 8.57143 58.9848 9.04762 59.5605 10C60.1342 10.9524 60.1462 11.9048 59.5965 12.8571L48.8766 31.2857C48.3269 32.2381 47.6022 32.9762 46.7027 33.5C45.8031 34.0238 44.7786 34.2857 43.6291 34.2857H21.2898L17.9914 40H50.9756C51.8252 40 52.5369 40.2733 53.1106 40.82C53.6863 41.3686 53.9742 42.0476 53.9742 42.8571C53.9742 43.6667 53.6863 44.3448 53.1106 44.8914C52.5369 45.44 51.8252 45.7143 50.9756 45.7143H17.9914Z" fill="black"/>
</svg>
