<svg width="50" height="50" viewBox="0 0 50 50" fill="none" xmlns="http://www.w3.org/2000/svg">
<path d="M16.6665 8.33317V33.3332C16.6665 34.4382 17.1055 35.498 17.8869 36.2794C18.6683 37.0608 19.7281 37.4998 20.8332 37.4998H37.4998C38.6049 37.4998 39.6647 37.0608 40.4461 36.2794C41.2275 35.498 41.6665 34.4382 41.6665 33.3332V15.0873C41.6664 14.5323 41.5555 13.9828 41.3401 13.4712C41.1247 12.9596 40.8093 12.4962 40.4123 12.1082L33.5061 5.354C32.7277 4.59287 31.6823 4.16664 30.5936 4.1665H20.8332C19.7281 4.1665 18.6683 4.60549 17.8869 5.38689C17.1055 6.16829 16.6665 7.2281 16.6665 8.33317V8.33317Z" stroke="#070C3A" stroke-width="2" stroke-linecap="round" stroke-linejoin="round"/>
<path d="M33.3333 37.4997V41.6663C33.3333 42.7714 32.8943 43.8312 32.1129 44.6126C31.3315 45.394 30.2717 45.833 29.1666 45.833H12.4999C11.3948 45.833 10.335 45.394 9.55364 44.6126C8.77224 43.8312 8.33325 42.7714 8.33325 41.6663V18.7497C8.33325 17.6446 8.77224 16.5848 9.55364 15.8034C10.335 15.022 11.3948 14.583 12.4999 14.583H16.6666" stroke="#070C3A" stroke-width="2" stroke-linecap="round" stroke-linejoin="round"/>
</svg>
