<svg width="130" height="130" viewBox="0 0 130 130" fill="none" xmlns="http://www.w3.org/2000/svg">
<g filter="url(#filter0_d_78_188)">
<rect x="15" y="5" width="100" height="100" rx="15" fill="#FAFF00"/>
</g>
<path d="M88.1667 41.8957L82.2708 35.9998C81.0999 34.8274 79.5112 34.168 77.8542 34.1665H64.6458C62.9888 34.168 61.4001 34.8274 60.2292 35.9998L54.3333 41.8957C53.1609 43.0666 52.5015 44.6553 52.5 46.3123V65.4165C52.5 67.0741 53.1585 68.6638 54.3306 69.8359C55.5027 71.008 57.0924 71.6665 58.75 71.6665H83.75C85.4076 71.6665 86.9973 71.008 88.1694 69.8359C89.3415 68.6638 90 67.0741 90 65.4165V46.3123C89.9985 44.6553 89.3391 43.0666 88.1667 41.8957V41.8957ZM63.1667 38.9373C63.5659 38.5566 64.0942 38.3408 64.6458 38.3332H77.8542C78.4058 38.3408 78.9341 38.5566 79.3333 38.9373L82.8958 42.4998H59.6042L63.1667 38.9373ZM83.75 67.4998H58.75C58.1975 67.4998 57.6676 67.2803 57.2769 66.8896C56.8862 66.4989 56.6667 65.969 56.6667 65.4165V46.6665H85.8333V65.4165C85.8333 65.969 85.6138 66.4989 85.2231 66.8896C84.8324 67.2803 84.3025 67.4998 83.75 67.4998Z" fill="white"/>
<path d="M77.9166 50C77.3641 50 76.8341 50.2195 76.4434 50.6102C76.0527 51.0009 75.8333 51.5308 75.8333 52.0833C75.8333 53.1884 75.3943 54.2482 74.6129 55.0296C73.8315 55.811 72.7717 56.25 71.6666 56.25C70.5615 56.25 69.5017 55.811 68.7203 55.0296C67.9389 54.2482 67.4999 53.1884 67.4999 52.0833C67.4999 51.5308 67.2804 51.0009 66.8897 50.6102C66.499 50.2195 65.9691 50 65.4166 50C64.8641 50 64.3341 50.2195 63.9434 50.6102C63.5527 51.0009 63.3333 51.5308 63.3333 52.0833C63.3333 54.2935 64.2112 56.4131 65.774 57.9759C67.3368 59.5387 69.4564 60.4167 71.6666 60.4167C73.8767 60.4167 75.9963 59.5387 77.5591 57.9759C79.1219 56.4131 79.9999 54.2935 79.9999 52.0833C79.9999 51.5308 79.7804 51.0009 79.3897 50.6102C78.999 50.2195 78.4691 50 77.9166 50Z" fill="white"/>
<defs>
<filter id="filter0_d_78_188" x="0" y="0" width="130" height="130" filterUnits="userSpaceOnUse" color-interpolation-filters="sRGB">
<feFlood flood-opacity="0" result="BackgroundImageFix"/>
<feColorMatrix in="SourceAlpha" type="matrix" values="0 0 0 0 0 0 0 0 0 0 0 0 0 0 0 0 0 0 127 0" result="hardAlpha"/>
<feOffset dy="10"/>
<feGaussianBlur stdDeviation="7.5"/>
<feComposite in2="hardAlpha" operator="out"/>
<feColorMatrix type="matrix" values="0 0 0 0 0 0 0 0 0 0 0 0 0 0 0 0 0 0 0.25 0"/>
<feBlend mode="normal" in2="BackgroundImageFix" result="effect1_dropShadow_78_188"/>
<feBlend mode="normal" in="SourceGraphic" in2="effect1_dropShadow_78_188" result="shape"/>
</filter>
</defs>
</svg>
