<svg width="70" height="70" viewBox="0 0 70 70" fill="none" xmlns="http://www.w3.org/2000/svg">
<rect width="70" height="70" fill="#FF0202" fill-opacity="0.87"/>
<path d="M35 24.92C37.96 24.92 40.5467 25.5067 42.76 26.68C44.9733 27.8533 46.68 29.5067 47.88 31.64C49.1067 33.7467 49.72 36.1867 49.72 38.96C49.72 41.7067 49.1067 44.1467 47.88 46.28C46.68 48.4133 44.96 50.0667 42.72 51.24C40.5067 52.4133 37.9333 53 35 53H24.48V24.92H35ZM34.56 47.08C37.1467 47.08 39.16 46.3733 40.6 44.96C42.04 43.5467 42.76 41.5467 42.76 38.96C42.76 36.3733 42.04 34.36 40.6 32.92C39.16 31.48 37.1467 30.76 34.56 30.76H31.32V47.08H34.56Z" fill="white"/>
</svg>
