<svg width="50" height="50" viewBox="0 0 50 50" fill="none" xmlns="http://www.w3.org/2000/svg">
<path d="M8.33366 16.6667H41.667V43.75C41.667 44.3026 41.4475 44.8325 41.0568 45.2232C40.6661 45.6139 40.1362 45.8334 39.5837 45.8334H10.417C9.86446 45.8334 9.33455 45.6139 8.94385 45.2232C8.55315 44.8325 8.33366 44.3026 8.33366 43.75V16.6667ZM12.5003 20.8334V41.6667H37.5003V20.8334H12.5003ZM18.7503 25H22.917V37.5H18.7503V25ZM27.0837 25H31.2503V37.5H27.0837V25ZM14.5837 10.4167V6.25002C14.5837 5.69749 14.8032 5.16758 15.1939 4.77688C15.5846 4.38618 16.1145 4.16669 16.667 4.16669H33.3337C33.8862 4.16669 34.4161 4.38618 34.8068 4.77688C35.1975 5.16758 35.417 5.69749 35.417 6.25002V10.4167H45.8337V14.5834H4.16699V10.4167H14.5837ZM18.7503 8.33335V10.4167H31.2503V8.33335H18.7503Z" fill="#FF0202" fill-opacity="0.87"/>
</svg>
