<svg width="51" height="50" viewBox="0 0 51 50" fill="none" xmlns="http://www.w3.org/2000/svg">
<path d="M49.8251 24.8558L26.9418 1.11444C26.777 0.943036 26.5813 0.807052 26.3658 0.71427C26.1504 0.621488 25.9195 0.57373 25.6862 0.57373C25.453 0.57373 25.222 0.621488 25.0066 0.71427C24.7911 0.807052 24.5954 0.943036 24.4307 1.11444L1.54737 24.8558C0.880707 25.548 0.50293 26.4882 0.50293 27.4688C0.50293 29.5049 2.09737 31.1603 4.05848 31.1603H6.46958V48.1011C6.46958 49.1221 7.26403 49.9469 8.24736 49.9469H22.1307V37.0264H28.3529V49.9469H43.1251C44.1084 49.9469 44.9028 49.1221 44.9028 48.1011V31.1603H47.3139C48.2584 31.1603 49.1639 30.7739 49.8306 30.0759C51.2139 28.6339 51.2139 26.2978 49.8251 24.8558Z" fill="black"/>
</svg>
