<svg width="60" height="60" viewBox="0 0 60 60" fill="none" xmlns="http://www.w3.org/2000/svg">
<path d="M30 1.2002C22.3617 1.2002 15.0363 4.23447 9.63527 9.63552C4.23423 15.0366 1.19995 22.362 1.19995 30.0002C1.20015 33.7823 1.94528 37.5273 3.39279 41.0214C4.84031 44.5155 6.96187 47.6902 9.63634 50.3644C12.3108 53.0386 15.4858 55.1598 18.9801 56.607C22.4743 58.0542 26.2194 58.7989 30.0015 58.7987C33.7835 58.7985 37.5285 58.0534 41.0226 56.6059C44.5167 55.1583 47.6915 53.0368 50.3657 50.3623C53.0399 47.6878 55.1611 44.5128 56.6083 41.0186C58.0554 37.5243 58.8002 33.7793 58.8 29.9972C58.8 14.0942 45.903 1.2002 30 1.2002ZM30 52.7972C27.0058 52.7972 24.041 52.2075 21.2748 51.0617C18.5085 49.9158 15.9951 48.2364 13.8779 46.1192C11.7607 44.0021 10.0813 41.4886 8.9355 38.7224C7.78969 35.9562 7.19995 32.9913 7.19995 29.9972C7.19995 27.0031 7.78969 24.0382 8.9355 21.272C10.0813 18.5058 11.7607 15.9923 13.8779 13.8752C15.9951 11.758 18.5085 10.0785 21.2748 8.93274C24.041 7.78693 27.0058 7.1972 30 7.1972V30.0002L50.376 19.8122C51.9689 22.9721 52.7991 26.4614 52.8 30.0002C52.7992 36.0466 50.3967 41.8451 46.1209 46.1203C41.8452 50.3955 36.0464 52.7972 30 52.7972Z" fill="black"/>
</svg>
