<svg width="130" height="130" viewBox="0 0 130 130" fill="none" xmlns="http://www.w3.org/2000/svg">
<g filter="url(#filter0_d_78_181)">
<rect x="15" y="5" width="100" height="100" rx="15" fill="#FF0202"/>
</g>
<path d="M94 30H44V45.7895H46.5V74.7368C46.5 76.1327 47.0268 77.4714 47.9645 78.4585C48.9021 79.4455 50.1739 80 51.5 80H86.5C87.8261 80 89.0979 79.4455 90.0355 78.4585C90.9732 77.4714 91.5 76.1327 91.5 74.7368V45.7895H94V30ZM49 35.2632H89V40.5263H49V35.2632ZM86.5 74.7368H51.5V45.7895H86.5V74.7368ZM61.5 51.0526H76.5C76.5 52.4485 75.9732 53.7872 75.0355 54.7742C74.0979 55.7613 72.8261 56.3158 71.5 56.3158H66.5C65.1739 56.3158 63.9021 55.7613 62.9645 54.7742C62.0268 53.7872 61.5 52.4485 61.5 51.0526Z" fill="white"/>
<defs>
<filter id="filter0_d_78_181" x="0" y="0" width="130" height="130" filterUnits="userSpaceOnUse" color-interpolation-filters="sRGB">
<feFlood flood-opacity="0" result="BackgroundImageFix"/>
<feColorMatrix in="SourceAlpha" type="matrix" values="0 0 0 0 0 0 0 0 0 0 0 0 0 0 0 0 0 0 127 0" result="hardAlpha"/>
<feOffset dy="10"/>
<feGaussianBlur stdDeviation="7.5"/>
<feComposite in2="hardAlpha" operator="out"/>
<feColorMatrix type="matrix" values="0 0 0 0 0 0 0 0 0 0 0 0 0 0 0 0 0 0 0.25 0"/>
<feBlend mode="normal" in2="BackgroundImageFix" result="effect1_dropShadow_78_181"/>
<feBlend mode="normal" in="SourceGraphic" in2="effect1_dropShadow_78_181" result="shape"/>
</filter>
</defs>
</svg>
