<svg width="50" height="50" viewBox="0 0 50 50" fill="none" xmlns="http://www.w3.org/2000/svg">
<path d="M4.16663 16.6663H45.8333M4.16663 12.4997C4.16663 11.3946 4.60561 10.3348 5.38701 9.5534C6.16842 8.77199 7.22822 8.33301 8.33329 8.33301H41.6666C42.7717 8.33301 43.8315 8.77199 44.6129 9.5534C45.3943 10.3348 45.8333 11.3946 45.8333 12.4997V37.4997C45.8333 38.6047 45.3943 39.6645 44.6129 40.446C43.8315 41.2274 42.7717 41.6663 41.6666 41.6663H8.33329C7.22822 41.6663 6.16842 41.2274 5.38701 40.446C4.60561 39.6645 4.16663 38.6047 4.16663 37.4997V12.4997Z" stroke="black" stroke-width="2" stroke-linecap="round" stroke-linejoin="round"/>
<path d="M4.16663 25H18.75C18.75 27.0833 20 31.25 25 31.25C30 31.25 31.25 27.0833 31.25 25H45.8333" stroke="black" stroke-width="2" stroke-linecap="round" stroke-linejoin="round"/>
</svg>
