<svg width="667" height="580" viewBox="0 0 667 580" fill="none" xmlns="http://www.w3.org/2000/svg">
<g clip-path="url(#clip0_444_104)">
<path d="M375.029 108.36H324.601C320.493 108.36 317.132 104.999 317.132 100.892V99.7177C317.132 95.6098 320.493 92.249 324.601 92.249H375.029C379.136 92.249 382.497 95.6098 382.497 99.7177V100.892C382.497 104.999 379.136 108.36 375.029 108.36Z" fill="#2B468A"/>
<path d="M296.236 115.204L294.517 116.438L292.788 115.218C293.171 114.679 293.804 114.322 294.517 114.322C295.225 114.322 295.853 114.67 296.236 115.204Z" fill="white"/>
<path d="M294.516 111.315C292.788 111.315 291.259 112.176 290.334 113.49L291.425 114.256C292.112 113.284 293.243 112.652 294.516 112.652C295.78 112.652 296.906 113.276 297.59 114.233L298.677 113.452C297.747 112.156 296.227 111.315 294.516 111.315Z" fill="white"/>
<path d="M294.516 105.599C290.859 105.599 287.626 107.417 285.665 110.199L286.758 110.964C288.475 108.531 291.314 106.936 294.516 106.936C297.691 106.936 300.513 108.505 302.236 110.906L303.317 110.126C301.354 107.386 298.144 105.599 294.516 105.599Z" fill="white"/>
<path d="M294.516 108.728C291.915 108.728 289.609 110.016 288.206 111.988L289.296 112.753C290.459 111.129 292.364 110.065 294.516 110.065C296.65 110.065 298.544 111.112 299.71 112.713L300.792 111.938C299.385 109.992 297.097 108.728 294.516 108.728Z" fill="white"/>
<path d="M340.088 140.143H317.489C316.705 140.143 316.064 139.502 316.064 138.718V138.039C316.064 137.255 316.705 136.614 317.489 136.614H340.088C340.871 136.614 341.512 137.255 341.512 138.039V138.718C341.512 139.502 340.871 140.143 340.088 140.143Z" fill="#699DED"/>
<path d="M362.116 140.143H345.885C345.214 140.143 344.664 139.594 344.664 138.923V137.835C344.664 137.163 345.214 136.614 345.885 136.614H362.116C362.787 136.614 363.336 137.163 363.336 137.835V138.923C363.336 139.594 362.787 140.143 362.116 140.143Z" fill="#699DED"/>
<rect x="-214" y="-18" width="1200" height="615" rx="7" fill="#7D0681" fill-opacity="0.06"/>
<path d="M0 580H667V0H0V580Z" fill="#7D0681" fill-opacity="0.05"/>
<path d="M404.839 306.478C404.839 306.478 377.073 362.024 348.868 400.367C337.646 415.628 326.354 428.162 316.717 433.389C307.283 438.504 299.296 446.451 292.688 455.258C275.572 478.06 267.674 506.608 267.674 506.608L195.552 397.496C195.552 397.496 198.013 290.838 206.673 272.997C219.293 246.998 225.39 194.467 230.238 184.009C233.835 176.251 244.107 136.176 245.092 133.231C245.52 131.962 248.938 130.016 253.377 130.02C256.939 130.02 262.986 133.462 264.511 140.537C272.224 176.296 262.941 199.883 263.046 200.931C265.766 228.414 257.587 248.814 263.323 254.217C263.537 254.416 263.933 254.322 264.494 253.964C274.436 247.58 336.146 157.614 343.746 155.671C351.775 153.624 404.839 306.478 404.839 306.478Z" fill="#FFB17C"/>
<path d="M289.371 485.014C289.371 485.014 288.389 533.501 285.577 598.805H103.656C145.24 510.129 181.392 435.493 181.392 435.493C181.392 435.493 284.976 438.657 289.371 485.014Z" fill="black"/>
<path d="M467.896 118.49L445.561 151.232L423.645 183.363C422.309 184.975 420.762 185.535 419.088 185.374C413.829 184.875 407.323 177.289 402.251 173.09L401.737 172.668C395.05 167.136 394.105 157.14 399.637 150.456L433.135 109.964V109.96L443.07 97.9523C448.602 91.2649 458.598 90.3207 465.281 95.8524L465.796 96.2744C472.483 101.806 473.427 111.802 467.896 118.49Z" fill="#FFB17C"/>
<path d="M445.561 151.231L423.645 183.363C422.309 184.975 420.762 185.536 419.088 185.374L433.134 109.964C433.165 110.386 435.553 144.222 445.561 151.231Z" fill="#EEA16E"/>
<path d="M348.868 400.367C337.646 415.628 326.354 428.162 316.716 433.389C307.282 438.504 299.296 446.451 292.688 455.258C285.086 451.715 276.422 447.557 267.952 443.441C257.639 438.429 257.243 423.784 267.345 418.358C267.444 418.305 267.54 418.251 267.635 418.197C277.101 412.78 286.8 393.656 286.8 393.656L348.868 400.367Z" fill="#EEA16E"/>
<path d="M244.59 134.89L238.746 158.482C238.746 158.482 243.855 160.572 247.135 158.949C250.416 157.326 253.093 136.16 244.59 134.89Z" fill="#FFC196"/>
<path d="M412.642 411.516H286.985C274.625 411.516 264.512 401.403 264.512 389.043V112.84C264.512 100.48 274.625 90.3667 286.985 90.3667H412.642C425.002 90.3667 435.115 100.48 435.115 112.84V389.043C435.115 401.403 425.002 411.516 412.642 411.516Z" fill="#2B468A"/>
<path d="M426.66 114.967V384.768C426.66 393.921 419.224 401.408 410.141 401.408H289.485C280.401 401.408 272.969 393.921 272.969 384.768V114.967C272.969 105.814 280.401 98.3269 289.485 98.3269H410.141C419.224 98.3269 426.66 105.814 426.66 114.967Z" fill="#C0D7FA"/>
<path d="M410.141 98.3267L290.977 401.407H289.485C280.401 401.407 272.969 393.921 272.969 384.768V114.967C272.969 105.814 280.401 98.3267 289.485 98.3267H410.141Z" fill="#CAE0FC"/>
<path d="M456.778 242.133L453.447 243.399L431.05 251.91C430.526 252.109 429.994 252.28 429.463 252.414C422.047 254.341 414.156 250.387 411.375 243.07L411.047 242.21C408.067 234.367 412.045 225.511 419.888 222.531L440.767 214.598L442.284 214.02L445.615 212.754C453.458 209.774 462.31 213.752 465.29 221.595L465.618 222.455C468.598 230.298 464.62 239.153 456.778 242.133Z" fill="#FFB17C"/>
<path d="M438.59 242.647C434.852 244.064 428.085 246.578 424.466 247.097C423.442 247.245 421.555 246.688 419.795 244.76C418.739 243.605 417.728 241.959 416.978 239.679C416.626 238.606 416.336 237.538 416.213 236.437C416.074 235.147 416.11 233.858 416.336 232.581C416.54 231.43 417.326 230.382 418.472 229.829C418.477 229.825 418.485 229.825 418.489 229.821C422.337 227.983 427.524 225.744 432.072 224.495C435.216 223.627 438.397 225.015 439.392 227.766L439.863 229.051L442.266 235.635C443.261 238.369 441.643 241.497 438.59 242.647Z" fill="#FFD2B6"/>
<path d="M438.59 242.647C434.852 244.064 428.085 246.578 424.466 247.098C423.442 247.245 421.555 246.688 419.795 244.76C419.607 244.322 419.435 243.859 419.271 243.364C418.919 242.291 418.628 241.223 418.505 240.122C418.366 238.832 418.403 237.542 418.628 236.265C418.833 235.115 419.619 234.067 420.765 233.514C420.769 233.51 420.777 233.51 420.781 233.506C424.629 231.668 429.817 229.428 434.365 228.18C436.379 227.623 438.405 227.991 439.863 229.052L442.266 235.635C443.26 238.369 441.643 241.497 438.59 242.647Z" fill="#FFC196"/>
<path d="M446.615 273.622L429.343 278.324C424.096 279.752 418.632 276.628 417.203 271.38L416.671 269.424C415.242 264.177 418.367 258.713 423.616 257.285L440.887 252.583C446.135 251.154 451.598 254.279 453.027 259.527L453.559 261.482C454.988 266.73 451.863 272.193 446.615 273.622Z" fill="#FFB17C"/>
<path d="M437.276 272.774C434.103 273.621 428.367 275.115 425.363 275.279C424.269 275.341 422.079 274.415 420.651 271.541C420.299 270.845 420 270.039 419.766 269.106C419.557 268.258 419.398 267.419 419.382 266.567C419.361 265.565 419.488 264.578 419.766 263.612C420.016 262.74 420.74 261.987 421.719 261.639C421.727 261.634 421.731 261.634 421.735 261.63C425.027 260.468 429.448 259.08 433.272 258.413C435.912 257.95 438.418 259.219 439.036 261.397L439.482 262.953L440.813 267.624C441.426 269.785 439.867 272.086 437.276 272.774Z" fill="#FFD2B6"/>
<path d="M437.276 272.774C434.103 273.621 428.368 275.116 425.363 275.279C424.269 275.341 422.079 274.415 420.651 271.542C420.458 270.751 420.319 269.961 420.303 269.159C420.282 268.16 420.409 267.169 420.687 266.203C420.937 265.335 421.662 264.578 422.64 264.23C422.648 264.226 422.652 264.226 422.657 264.222C425.948 263.059 430.369 261.671 434.193 261.008C436.379 260.623 438.475 261.43 439.482 262.953L440.813 267.624C441.427 269.785 439.867 272.086 437.276 272.774Z" fill="#FFC196"/>
<path d="M163.681 472.281C163.681 472.281 199.231 506.33 223.197 519.476L241.341 506.606V525.591C241.341 525.591 277.026 531.902 288.282 525.591V473.817L188.053 423.572L163.681 472.281Z" fill="#77DD75"/>
<path d="M295.854 521.472C282.047 524.303 252.289 513.457 252.289 513.457L257.089 467.097L223.462 505.609C206.349 499.24 179.585 482.622 163.682 472.281C155.765 467.13 150.54 463.537 150.54 463.537C172.979 427.428 195.552 393.654 195.552 393.654C202.177 406.908 217.858 418.417 234.857 427.623C263.105 442.923 294.991 451.862 294.991 451.862C294.981 479.414 295.854 521.472 295.854 521.472Z" fill="#DCEAFF"/>
<path d="M456.233 209.033C456.11 209.078 455.987 209.118 455.86 209.159L433.217 214.973C423.261 217.532 412.965 212.144 410.336 203.003L408.99 198.319C406.464 189.542 411.892 180.364 421.144 177.388L428.62 175.467L443.787 171.574C453.744 169.015 464.04 174.403 466.668 183.544L468.015 188.228C470.504 196.887 465.255 205.929 456.233 209.033Z" fill="#FFB17C"/>
<path d="M445.856 202.712L434.856 207.67C434.84 207.674 434.819 207.678 434.786 207.686C434.344 207.805 433.898 207.895 433.456 207.96C433.271 207.989 433.083 208.009 432.899 208.03C432.821 208.038 432.743 208.038 432.666 208.034C431.454 207.993 430.623 206.708 431.147 205.561C432.187 203.297 432.469 200.677 431.769 198.102L431.507 197.144C431.507 197.136 431.503 197.124 431.499 197.116L430.648 193.992C429.972 191.503 428.535 189.419 426.66 187.913C426.435 187.729 426.202 187.557 425.964 187.393C423.79 185.886 424.343 182.476 426.889 181.768C426.914 181.76 426.934 181.756 426.959 181.747L439.032 179.922C442.016 179.111 444.89 181.408 445.705 184.392L446.675 187.95L448.738 195.535C449.549 198.524 448.84 201.901 445.856 202.712Z" fill="#FFD2B6"/>
<path d="M445.856 202.712L434.856 207.67C434.84 207.674 434.819 207.678 434.786 207.686C434.528 207.735 433.722 207.87 432.666 208.034C431.454 207.993 430.623 206.707 431.147 205.561C432.187 203.297 432.469 200.677 431.769 198.102L431.507 197.144C431.507 197.136 431.503 197.124 431.499 197.115L430.648 193.992C429.972 191.503 428.535 189.419 426.66 187.913C427.049 187.344 427.63 186.893 428.392 186.681C428.413 186.673 428.437 186.668 428.462 186.66L440.534 184.834C443.048 184.15 445.479 185.674 446.675 187.95L448.738 195.535C449.549 198.524 448.84 201.901 445.856 202.712Z" fill="#FFC196"/>
<path d="M264.511 326.812C264.511 326.812 259.572 283.69 255.014 275.283C250.457 266.873 246.6 250.034 253.612 237.522C260.623 225.007 263.046 200.932 263.046 200.932C265.766 228.414 257.587 248.814 263.323 254.217C263.537 254.417 263.933 254.322 264.493 253.964L264.511 326.812Z" fill="#EEA16E"/>
<path d="M295.853 521.472C282.047 524.303 252.289 513.457 252.289 513.457L257.089 467.097L223.462 505.609C206.349 499.241 179.585 482.622 163.682 472.281C204.432 467.839 234.857 427.623 234.857 427.623C263.105 442.923 294.991 451.862 294.991 451.862C294.981 479.414 295.853 521.472 295.853 521.472Z" fill="#CAE0FC"/>
<path d="M201.106 479.363C201.135 476.272 203.664 473.789 206.755 473.818C209.846 473.847 212.329 476.375 212.3 479.466C212.272 482.558 209.743 485.041 206.652 485.012C203.56 484.983 201.078 482.454 201.106 479.363Z" fill="black"/>
<path d="M54.0561 285.168H137.842C144.52 285.168 149.985 290.632 149.985 297.311V334.07C149.985 340.205 144.966 345.223 138.831 345.223H136.679L140.716 362.273L115.372 345.223H53.3328C46.6596 345.223 41.1998 339.763 41.1998 333.09V298.024C41.1998 290.954 46.985 285.168 54.0561 285.168Z" fill="#DFEBFC"/>
<path d="M51.808 311.849H139.17C140.36 311.849 141.333 310.876 141.333 309.686C141.333 308.496 140.36 307.522 139.17 307.522H51.808C50.6181 307.522 49.6446 308.496 49.6446 309.686C49.6446 310.876 50.6181 311.849 51.808 311.849Z" fill="#CAE0FC"/>
<path d="M51.808 321.533H139.17C140.36 321.533 141.333 320.56 141.333 319.369C141.333 318.18 140.36 317.206 139.17 317.206H51.808C50.6181 317.206 49.6446 318.18 49.6446 319.369C49.6446 320.56 50.6181 321.533 51.808 321.533Z" fill="#CAE0FC"/>
<path d="M51.808 331.217H139.17C140.36 331.217 141.333 330.244 141.333 329.054C141.333 327.864 140.36 326.89 139.17 326.89H51.808C50.6181 326.89 49.6446 327.864 49.6446 329.054C49.6446 330.244 50.6181 331.217 51.808 331.217Z" fill="#CAE0FC"/>
<path d="M99.4039 296.808H136.492C137.908 296.808 139.067 295.649 139.067 294.232C139.067 292.816 137.908 291.657 136.492 291.657H99.4039C97.9876 291.657 96.8285 292.816 96.8285 294.232C96.8285 295.649 97.9876 296.808 99.4039 296.808Z" fill="#CAE0FC"/>
<path d="M67.5309 296.808H89.8476C90.967 296.808 91.8834 295.892 91.8834 294.772V293.693C91.8834 292.573 90.967 291.657 89.8476 291.657H67.5309C66.4112 291.657 65.4951 292.573 65.4951 293.693V294.772C65.4951 295.892 66.4112 296.808 67.5309 296.808Z" fill="#CAE0FC"/>
<path d="M503.81 155.49H475.843C468.485 155.49 462.466 149.471 462.466 142.113V119.075C462.466 111.718 468.485 105.698 475.843 105.698H503.81C511.168 105.698 517.188 111.718 517.188 119.075V142.113C517.188 149.471 511.168 155.49 503.81 155.49Z" fill="#DFEBFC"/>
<path d="M475.285 130.186C476.805 134.192 489.835 144.712 489.835 144.712C489.835 144.712 494.081 141.262 498.015 137.546C500.959 134.795 503.71 131.899 504.362 130.186C505.906 126.204 504.265 120.51 498.57 119.544C492.899 118.579 489.835 124.516 489.835 124.516C489.835 124.516 486.77 118.579 481.076 119.544C480.087 119.713 479.218 120.027 478.469 120.462C474.922 122.44 474.03 126.904 475.285 130.186Z" fill="black"/>
<path d="M408.409 333.392H335.274C328.127 333.392 322.333 327.599 322.333 320.451V291.835C322.333 284.688 328.127 278.893 335.274 278.893H408.409C415.556 278.893 421.349 284.688 421.349 291.835V320.451C421.349 327.599 415.556 333.392 408.409 333.392Z" fill="black"/>
<path d="M360.063 292.745H335.321C334.464 292.745 333.761 292.043 333.761 291.186V290.442C333.761 289.584 334.464 288.882 335.321 288.882H360.063C360.92 288.882 361.622 289.584 361.622 290.442V291.186C361.622 292.043 360.92 292.745 360.063 292.745Z" fill="#77DD75"/>
<path d="M360.362 302.636H335.02C334.328 302.636 333.761 302.069 333.761 301.377C333.761 300.684 334.328 300.117 335.02 300.117H360.362C361.055 300.117 361.621 300.684 361.621 301.377C361.621 302.069 361.055 302.636 360.362 302.636Z" fill="#77DD75"/>
<path d="M349.144 308.596H334.726C334.195 308.596 333.761 308.163 333.761 307.632V307.043C333.761 306.512 334.195 306.078 334.726 306.078H349.144C349.674 306.078 350.108 306.512 350.108 307.043V307.632C350.108 308.163 349.674 308.596 349.144 308.596Z" fill="#77DD75"/>
<path d="M378.529 308.596H355.231C354.565 308.596 354.02 308.052 354.02 307.387V307.288C354.02 306.623 354.565 306.078 355.231 306.078H378.529C379.194 306.078 379.738 306.623 379.738 307.288V307.387C379.738 308.052 379.194 308.596 378.529 308.596Z" fill="#77DD75"/>
<path d="M400.296 302.636H367.068C366.375 302.636 365.808 302.069 365.808 301.377C365.808 300.684 366.375 300.117 367.068 300.117H400.296C400.988 300.117 401.555 300.684 401.555 301.377C401.555 302.069 400.988 302.636 400.296 302.636Z" fill="#77DD75"/>
<path d="M360.362 314.557H335.02C334.328 314.557 333.761 313.991 333.761 313.298C333.761 312.605 334.328 312.039 335.02 312.039H360.362C361.055 312.039 361.621 312.605 361.621 313.298C361.621 313.991 361.055 314.557 360.362 314.557Z" fill="#77DD75"/>
<path d="M400.296 314.557H367.068C366.375 314.557 365.808 313.991 365.808 313.298C365.808 312.605 366.375 312.039 367.068 312.039H400.296C400.988 312.039 401.555 312.605 401.555 313.298C401.555 313.991 400.988 314.557 400.296 314.557Z" fill="#77DD75"/>
<path d="M360.362 320.762H335.02C334.328 320.762 333.761 320.196 333.761 319.503C333.761 318.811 334.328 318.244 335.02 318.244H360.362C361.055 318.244 361.621 318.811 361.621 319.503C361.621 320.196 361.055 320.762 360.362 320.762Z" fill="#77DD75"/>
<path d="M400.296 320.762H367.068C366.375 320.762 365.808 320.196 365.808 319.503C365.808 318.811 366.375 318.244 367.068 318.244H400.296C400.988 318.244 401.555 318.811 401.555 319.503C401.555 320.196 400.988 320.762 400.296 320.762Z" fill="#77DD75"/>
<path d="M384.179 292.745H366.409C365.674 292.745 365.073 292.144 365.073 291.409V290.218C365.073 289.483 365.674 288.882 366.409 288.882H384.179C384.913 288.882 385.514 289.483 385.514 290.218V291.409C385.514 292.144 384.913 292.745 384.179 292.745Z" fill="#77DD75"/>
<path d="M290.082 303.916C290.082 306.441 290.931 308.765 292.363 310.62C292.838 311.238 293.378 311.801 293.97 312.302C294.559 312.803 295.2 313.239 295.884 313.607C297.429 314.437 299.193 314.908 301.071 314.908C303.416 314.908 305.587 314.173 307.37 312.924C307.461 312.862 307.549 312.797 307.637 312.732C308.444 312.13 309.166 311.42 309.781 310.62C311.213 308.765 312.062 306.441 312.062 303.916C312.062 297.848 307.142 292.927 301.071 292.927C295.002 292.927 290.082 297.848 290.082 303.916Z" fill="white"/>
<path d="M304.047 310.966L303.035 310.07C302.951 310.087 302.867 310.102 302.783 310.116C302.6 309.988 302.4 309.864 302.191 309.748C302.258 309.339 302.313 308.959 302.359 308.623C302.513 307.445 302.531 306.735 302.531 306.624C303.067 306.598 303.429 306.54 303.429 306.54C304.444 306.305 304.494 302.84 304.259 301.033C304.45 301.036 304.636 301.01 304.824 300.926C305.593 300.587 305.636 299.424 305.636 299.424C305.636 299.424 305.413 299.838 305.085 299.972C305.085 299.972 306.37 298.212 304.879 297.008C303.395 295.802 301.878 296.59 301.014 296.643C299.117 296.759 297.891 296.872 297.273 298.119C296.661 299.348 296.901 302.73 298.073 303.974C298.093 304.09 298.114 304.203 298.128 304.319C298.198 304.766 298.36 305.131 298.592 305.424C298.328 306.88 297.728 307.967 297.189 308.689C296.823 308.973 296.49 309.339 296.179 309.777C296.171 309.783 296.159 309.791 296.159 309.791C296.159 309.791 296.162 309.791 296.168 309.794C295.596 310.606 295.127 311.665 294.75 312.906C294.747 312.912 294.747 312.917 294.744 312.923C295.365 313.361 296.037 313.729 296.748 314.025C296.794 314.046 296.841 314.063 296.887 314.083C296.899 314.086 296.907 314.092 296.919 314.095C296.994 314.127 297.073 314.156 297.148 314.185C297.334 314.257 297.519 314.324 297.708 314.385C297.905 314.449 298.105 314.507 298.305 314.559C298.398 314.582 298.491 314.605 298.583 314.626C298.665 314.646 298.746 314.663 298.83 314.678C298.842 314.681 298.853 314.684 298.865 314.686C298.92 314.698 298.975 314.707 299.03 314.718C299.158 314.742 299.288 314.765 299.419 314.785C299.448 314.788 299.48 314.794 299.509 314.797C299.581 314.808 299.651 314.817 299.723 314.826C299.825 314.837 299.926 314.849 300.028 314.86C300.141 314.872 300.257 314.881 300.373 314.887C300.48 314.895 300.59 314.901 300.7 314.904C300.814 314.907 300.93 314.91 301.046 314.91C301.17 314.91 301.292 314.907 301.417 314.904C301.428 314.904 301.437 314.904 301.449 314.901C301.478 314.901 301.51 314.901 301.539 314.898C301.6 314.898 301.661 314.895 301.721 314.889C301.73 314.887 301.736 314.887 301.745 314.887C301.86 314.881 301.974 314.872 302.09 314.86C303.574 314.721 304.975 314.28 306.231 313.608C305.593 312.514 304.798 311.662 304.047 310.966Z" fill="#699DED"/>
<path d="M294.319 239.431H380.095C383.072 239.431 385.486 237.017 385.486 234.039V199.686C385.486 196.708 383.072 194.294 380.095 194.294H294.319C291.341 194.294 288.927 196.708 288.927 199.686V234.039C288.927 237.017 291.341 239.431 294.319 239.431Z" fill="#699DED"/>
<path d="M326.037 215.16C326.037 218.373 324.955 221.332 323.133 223.695C322.528 224.479 321.843 225.197 321.089 225.835C318.65 227.904 315.494 229.151 312.046 229.151C308.913 229.151 306.022 228.122 303.689 226.381C302.661 225.616 301.742 224.71 300.96 223.695C299.137 221.332 298.055 218.373 298.055 215.16C298.055 207.432 304.318 201.169 312.046 201.169C319.774 201.169 326.037 207.432 326.037 215.16Z" fill="white"/>
<path d="M317.667 221.773C317.63 221.731 317.594 221.692 317.559 221.655C317.398 221.532 317.237 221.455 316.59 221.344C316.261 221.288 315.804 221.223 315.156 221.139C315.156 221.139 315.017 221.123 314.943 221.117C314.894 221.113 314.841 221.109 314.781 221.103C314.595 221.006 314.547 220.236 314.549 219.424C314.549 219.363 314.55 219.302 314.55 219.241C314.553 218.934 314.563 218.631 314.575 218.358C314.575 218.341 314.576 218.325 314.576 218.307C314.976 218.341 315.242 218.338 315.242 218.338C315.987 218.278 316.452 216.28 316.619 214.665C316.619 214.665 316.987 213.779 316.987 212.82C316.987 212.281 316.871 211.72 316.509 211.279C316.32 211.053 316.146 210.904 315.985 210.809C315.939 210.763 315.891 210.721 315.845 210.68C315.152 209.91 312.333 207.025 310.483 208.694C310.435 208.527 309.833 206.654 306.916 207.267C307.097 207.248 308.39 207.126 308.765 207.65C308.714 207.628 307.584 207.126 306.872 207.564C306.543 207.764 306.339 208.18 306.223 208.618C306.221 208.621 306.221 208.624 306.22 208.627C306.22 208.63 306.218 208.631 306.218 208.634V208.636C306.217 208.64 306.215 208.644 306.215 208.649C306.202 208.708 306.188 208.768 306.175 208.827C306.173 208.836 306.17 208.845 306.169 208.855C306.169 208.858 306.168 208.859 306.168 208.862V208.865C306.081 209.317 306.081 209.757 306.133 209.97C306.242 210.426 307.046 211.787 307.58 211.787C307.783 211.787 307.997 211.72 308.189 211.637C308.106 211.878 308.032 212.142 307.971 212.429C307.404 215.095 309.176 217.121 310.094 216.619C310.683 216.299 311.128 217.328 311.128 217.328L311.131 217.324C311.044 219.274 310.509 220.547 310.112 220.865C309.969 220.881 309.662 220.919 309.278 220.98V220.978C309.278 220.978 307.925 221.126 306.895 221.574C306.887 221.577 306.88 221.58 306.871 221.584C306.636 221.681 306.436 221.79 306.286 221.909C306.285 221.912 306.284 221.913 306.282 221.913V221.915C306.204 221.976 306.14 222.041 306.094 222.111C306.069 222.14 306.049 222.169 306.033 222.199C305.689 222.854 305.343 223.839 305.01 224.993C306.988 226.469 309.44 227.342 312.098 227.342C315.023 227.342 317.699 226.285 319.767 224.531C319.007 222.947 318.14 222.131 317.667 221.773Z" fill="#2B468A"/>
<path d="M351.511 208.111H335.618C335.067 208.111 334.616 207.661 334.616 207.109V206.631C334.616 206.08 335.067 205.63 335.618 205.63H351.511C352.062 205.63 352.513 206.08 352.513 206.631V207.109C352.513 207.661 352.062 208.111 351.511 208.111Z" fill="white"/>
<path d="M351.704 217.032H335.425C334.98 217.032 334.616 216.668 334.616 216.223C334.616 215.778 334.98 215.414 335.425 215.414H351.704C352.149 215.414 352.513 215.778 352.513 216.223C352.513 216.668 352.149 217.032 351.704 217.032Z" fill="white"/>
<path d="M344.498 220.861H335.236C334.895 220.861 334.616 220.582 334.616 220.242V219.863C334.616 219.522 334.895 219.243 335.236 219.243H344.498C344.838 219.243 345.117 219.522 345.117 219.863V220.242C345.117 220.582 344.838 220.861 344.498 220.861Z" fill="white"/>
<path d="M363.374 220.861H348.407C347.98 220.861 347.63 220.512 347.63 220.084V220.021C347.63 219.593 347.98 219.243 348.407 219.243H363.374C363.801 219.243 364.151 219.593 364.151 220.021V220.084C364.151 220.512 363.801 220.861 363.374 220.861Z" fill="white"/>
<path d="M377.356 217.032H356.011C355.566 217.032 355.202 216.668 355.202 216.223C355.202 215.778 355.566 215.414 356.011 215.414H377.356C377.801 215.414 378.165 215.778 378.165 216.223C378.165 216.668 377.801 217.032 377.356 217.032Z" fill="white"/>
<path d="M351.704 224.69H335.425C334.98 224.69 334.616 224.326 334.616 223.881C334.616 223.436 334.98 223.072 335.425 223.072H351.704C352.149 223.072 352.513 223.436 352.513 223.881C352.513 224.326 352.149 224.69 351.704 224.69Z" fill="white"/>
<path d="M377.356 224.69H356.011C355.566 224.69 355.202 224.326 355.202 223.881C355.202 223.436 355.566 223.072 356.011 223.072H377.356C377.801 223.072 378.165 223.436 378.165 223.881C378.165 224.326 377.801 224.69 377.356 224.69Z" fill="white"/>
<path d="M367.003 208.111H355.588C355.116 208.111 354.73 207.725 354.73 207.253V206.488C354.73 206.016 355.116 205.63 355.588 205.63H367.003C367.475 205.63 367.861 206.016 367.861 206.488V207.253C367.861 207.725 367.475 208.111 367.003 208.111Z" fill="white"/>
<path d="M378.321 387.094H300.908C294.942 387.094 290.106 382.258 290.106 376.293V359.927C290.106 353.962 294.942 349.126 300.908 349.126H378.321C384.287 349.126 389.122 353.962 389.122 359.927V376.293C389.122 382.258 384.287 387.094 378.321 387.094Z" fill="#9ABEF6"/>
<path d="M325.096 359.913H302.497C301.713 359.913 301.073 359.272 301.073 358.488V357.809C301.073 357.025 301.713 356.384 302.497 356.384H325.096C325.879 356.384 326.521 357.025 326.521 357.809V358.488C326.521 359.272 325.879 359.913 325.096 359.913Z" fill="#699DED"/>
<path d="M325.37 368.947H302.222C301.59 368.947 301.072 368.429 301.072 367.796C301.072 367.164 301.59 366.646 302.222 366.646H325.37C326.003 366.646 326.52 367.164 326.52 367.796C326.52 368.429 326.003 368.947 325.37 368.947Z" fill="#699DED"/>
<path d="M315.123 374.391H301.953C301.469 374.391 301.072 373.995 301.072 373.511V372.972C301.072 372.488 301.469 372.091 301.953 372.091H315.123C315.607 372.091 316.004 372.488 316.004 372.972V373.511C316.004 373.995 315.607 374.391 315.123 374.391Z" fill="#699DED"/>
<path d="M341.963 374.391H320.682C320.074 374.391 319.577 373.894 319.577 373.286V373.196C319.577 372.588 320.074 372.091 320.682 372.091H341.963C342.571 372.091 343.068 372.588 343.068 373.196V373.286C343.068 373.894 342.571 374.391 341.963 374.391Z" fill="#699DED"/>
<path d="M361.845 368.947H331.494C330.862 368.947 330.344 368.429 330.344 367.796C330.344 367.164 330.862 366.646 331.494 366.646H361.845C362.478 366.646 362.995 367.164 362.995 367.796C362.995 368.429 362.478 368.947 361.845 368.947Z" fill="#699DED"/>
<path d="M325.37 379.836H302.222C301.59 379.836 301.072 379.318 301.072 378.686C301.072 378.053 301.59 377.535 302.222 377.535H325.37C326.003 377.535 326.52 378.053 326.52 378.686C326.52 379.318 326.003 379.836 325.37 379.836Z" fill="#699DED"/>
<path d="M361.845 379.836H331.494C330.862 379.836 330.344 379.318 330.344 378.686C330.344 378.053 330.862 377.535 331.494 377.535H361.845C362.478 377.535 362.995 378.053 362.995 378.686C362.995 379.318 362.478 379.836 361.845 379.836Z" fill="#699DED"/>
<path d="M347.124 359.913H330.893C330.222 359.913 329.673 359.363 329.673 358.692V357.604C329.673 356.933 330.222 356.384 330.893 356.384H347.124C347.795 356.384 348.344 356.933 348.344 357.604V358.692C348.344 359.363 347.795 359.913 347.124 359.913Z" fill="#699DED"/>
<path d="M397.986 367.796C397.986 370.338 398.841 372.678 400.283 374.546C400.76 375.166 401.303 375.734 401.899 376.239C403.828 377.875 406.324 378.861 409.05 378.861C411.528 378.861 413.815 378.048 415.659 376.671C416.473 376.065 417.2 375.349 417.818 374.546C419.259 372.678 420.115 370.338 420.115 367.796C420.115 361.685 415.162 356.732 409.05 356.732C402.939 356.732 397.986 361.685 397.986 367.796Z" fill="white"/>
<path d="M414.705 374.067C414.691 374.037 414.674 374.009 414.651 373.983C414.607 373.919 414.546 373.858 414.473 373.8L414.47 373.797C414.331 373.684 414.143 373.582 413.926 373.493C413.917 373.49 413.911 373.487 413.902 373.484C412.942 373.063 411.681 372.927 411.681 372.927C411.321 372.872 411.037 372.837 410.904 372.823C410.532 372.524 410.034 371.338 409.952 369.519L409.955 369.525C409.955 369.525 410.37 368.563 410.918 368.864C411.774 369.331 413.426 367.44 412.899 364.955C412.841 364.688 412.771 364.442 412.696 364.218C412.875 364.294 413.076 364.358 413.264 364.358C413.76 364.358 414.511 363.087 414.613 362.661C414.717 362.235 414.604 360.834 413.922 360.419C413.259 360.01 412.206 360.48 412.159 360.498C412.499 360.022 413.659 360.117 413.87 360.141C411.162 359.578 410.602 361.315 410.555 361.472C408.833 359.915 406.203 362.606 405.556 363.325C405.512 363.363 405.469 363.403 405.425 363.447C405.277 363.531 405.112 363.673 404.938 363.882C404.599 364.294 404.492 364.818 404.492 365.32C404.492 366.214 404.834 367.04 404.834 367.04C404.99 368.545 405.425 370.41 406.121 370.465C406.121 370.465 406.368 370.468 406.739 370.436C406.739 370.453 406.742 370.468 406.742 370.485C406.754 370.738 406.762 371.022 406.765 371.306V371.477C406.768 372.234 406.722 372.953 406.551 373.043C406.493 373.049 406.444 373.052 406.4 373.058C406.33 373.06 406.2 373.078 406.2 373.078C405.597 373.156 405.167 373.217 404.863 373.269C404.26 373.371 404.109 373.443 403.961 373.559C403.926 373.591 403.891 373.629 403.856 373.669C403.416 374.003 402.607 374.762 401.899 376.239C403.827 377.874 406.325 378.86 409.05 378.86C411.53 378.86 413.815 378.048 415.659 376.671C415.349 375.595 415.027 374.676 414.705 374.067Z" fill="black"/>
<path d="M381.266 161.453H314.118C309.137 161.453 305.098 157.415 305.098 152.433V139.698C305.098 134.716 309.137 130.677 314.118 130.677H381.266C386.247 130.677 390.286 134.716 390.286 139.698V152.433C390.286 157.415 386.247 161.453 381.266 161.453Z" fill="#9ABEF6"/>
<path d="M340.362 149.177H317.214C316.581 149.177 316.064 148.66 316.064 148.027C316.064 147.395 316.581 146.877 317.214 146.877H340.362C340.994 146.877 341.512 147.395 341.512 148.027C341.512 148.66 340.994 149.177 340.362 149.177Z" fill="#699DED"/>
<path d="M330.115 154.622H316.945C316.46 154.622 316.064 154.225 316.064 153.741V153.202C316.064 152.718 316.46 152.321 316.945 152.321H330.115C330.599 152.321 330.996 152.718 330.996 153.202V153.741C330.996 154.225 330.599 154.622 330.115 154.622Z" fill="#699DED"/>
<path d="M356.955 154.622H335.674C335.066 154.622 334.569 154.125 334.569 153.517V153.426C334.569 152.819 335.066 152.321 335.674 152.321H356.955C357.563 152.321 358.06 152.819 358.06 153.426V153.517C358.06 154.125 357.563 154.622 356.955 154.622Z" fill="#699DED"/>
<path d="M376.837 149.177H346.486C345.853 149.177 345.336 148.66 345.336 148.027C345.336 147.395 345.853 146.877 346.486 146.877H376.837C377.47 146.877 377.987 147.395 377.987 148.027C377.987 148.66 377.47 149.177 376.837 149.177Z" fill="#699DED"/>
<path d="M397.986 145.405C397.986 147.946 398.842 150.287 400.283 152.155C400.761 152.776 401.303 153.343 401.899 153.848C403.828 155.484 406.324 156.47 409.051 156.47C411.529 156.47 413.816 155.657 415.66 154.28C416.473 153.675 417.2 152.958 417.819 152.155C419.26 150.287 420.116 147.946 420.116 145.405C420.116 139.294 415.162 134.341 409.051 134.341C402.939 134.341 397.986 139.294 397.986 145.405Z" fill="white"/>
<path d="M414.706 151.675C414.691 151.646 414.674 151.619 414.651 151.59C414.607 151.527 414.546 151.466 414.474 151.408L414.471 151.405C414.332 151.295 414.143 151.193 413.926 151.1C413.917 151.097 413.911 151.095 413.902 151.092C412.942 150.674 411.681 150.535 411.681 150.535V150.538C411.321 150.48 411.037 150.445 410.904 150.43C410.814 150.358 410.718 150.239 410.622 150.068V150.065C410.315 149.526 410.013 148.511 409.953 147.127L409.955 147.133C409.955 147.133 410.37 146.173 410.918 146.472C411.774 146.939 413.427 145.051 412.899 142.566C412.841 142.296 412.771 142.049 412.696 141.826C412.876 141.902 413.076 141.965 413.264 141.965C413.76 141.965 414.511 140.695 414.613 140.272C414.717 139.843 414.604 138.442 413.923 138.027C413.259 137.621 412.206 138.088 412.159 138.108C412.499 137.633 413.662 137.728 413.87 137.749C411.162 137.186 410.602 138.926 410.556 139.08C408.833 137.525 406.203 140.217 405.556 140.933C405.513 140.971 405.469 141.011 405.426 141.055C405.278 141.142 405.112 141.281 404.938 141.493C404.599 141.902 404.492 142.426 404.492 142.928C404.492 143.824 404.834 144.648 404.834 144.648C404.991 146.156 405.426 148.018 406.122 148.073C406.122 148.073 406.368 148.076 406.739 148.047C406.739 148.061 406.742 148.076 406.742 148.093C406.754 148.345 406.763 148.63 406.765 148.917V149.088C406.768 149.845 406.722 150.561 406.551 150.654C406.493 150.657 406.444 150.662 406.4 150.665C406.33 150.671 406.2 150.686 406.2 150.686C405.597 150.764 405.168 150.825 404.863 150.877C404.26 150.981 404.109 151.051 403.961 151.167C403.926 151.202 403.892 151.24 403.857 151.277C403.416 151.611 402.607 152.373 401.899 153.85C402.004 153.939 402.111 154.026 402.221 154.111C402.239 154.125 402.259 154.14 402.276 154.154C402.357 154.218 402.439 154.279 402.523 154.337C402.581 154.383 402.639 154.427 402.7 154.467C402.761 154.511 402.822 154.551 402.882 154.589C402.969 154.653 403.059 154.711 403.152 154.766C403.213 154.807 403.274 154.844 403.338 154.882C403.413 154.928 403.491 154.975 403.57 155.018C403.657 155.068 403.744 155.117 403.831 155.163C403.839 155.166 403.845 155.172 403.854 155.175C403.857 155.178 403.863 155.181 403.868 155.184H403.871C403.883 155.189 403.897 155.198 403.909 155.204C403.979 155.242 404.048 155.276 404.118 155.311C404.124 155.311 404.127 155.314 404.132 155.317C404.153 155.329 404.176 155.34 404.196 155.349C404.234 155.369 404.274 155.389 404.315 155.407C404.353 155.424 404.391 155.442 404.431 155.462C404.518 155.503 404.611 155.543 404.701 155.581C404.791 155.619 404.883 155.656 404.973 155.691C405.017 155.708 405.057 155.726 405.098 155.74C405.139 155.755 405.179 155.772 405.223 155.787C405.307 155.819 405.394 155.848 405.478 155.877C405.568 155.909 405.655 155.935 405.745 155.964C405.82 155.987 405.895 156.01 405.971 156.033C405.98 156.036 405.986 156.036 405.994 156.039C406.04 156.054 406.09 156.068 406.139 156.08C406.403 156.152 406.673 156.216 406.945 156.268C407.064 156.291 407.183 156.315 407.302 156.332C407.334 156.338 407.363 156.344 407.395 156.346C407.401 156.346 407.41 156.349 407.415 156.349C407.418 156.349 407.424 156.349 407.427 156.352C407.505 156.364 407.577 156.373 407.659 156.381C407.676 156.384 407.691 156.387 407.708 156.387C407.72 156.39 407.731 156.39 407.743 156.393C407.815 156.404 407.888 156.41 407.957 156.416C407.969 156.416 407.983 156.419 407.995 156.419C408.016 156.422 408.039 156.425 408.062 156.428C408.192 156.439 408.32 156.448 408.451 156.454H408.471C408.512 156.457 408.549 156.46 408.592 156.46C408.619 156.46 408.642 156.462 408.668 156.462C408.795 156.468 408.923 156.471 409.051 156.471C411.53 156.471 413.816 155.656 415.66 154.279C415.349 153.203 415.028 152.286 414.706 151.675Z" fill="black"/>
<path d="M595.025 580H461.607C455.21 575.711 421.985 553.048 408.235 536.152C405.324 532.57 394.666 501.714 386.477 476.661C381.364 461.013 377.211 447.621 376.51 444.55C376.266 443.48 376.104 441.36 376.005 438.489V438.46C375.657 428.214 376.132 408.456 376.623 392.761L376.625 392.689L376.634 392.483C376.658 391.793 376.678 391.114 376.701 390.441V390.418C376.704 390.352 376.704 390.282 376.707 390.215C376.797 387.489 376.884 384.92 376.965 382.582C377.171 376.742 377.345 372.348 377.417 370.629L377.446 369.828C377.446 369.828 377.449 369.828 377.452 369.825C377.664 369.706 384.081 366.282 392.659 372.461C394.73 373.955 396.644 377.562 398.39 382.269C399.507 385.274 400.554 388.725 401.528 392.361C405.274 406.348 407.963 423.069 409.399 427.547C411.713 434.782 438.99 466.601 440.695 468.579C440.721 468.614 440.75 468.646 440.776 468.678V418.429L420.184 363.329L411.73 340.709L407.482 329.341C407.482 329.341 400.965 318.643 395.499 305.773C393.106 300.141 390.914 294.095 389.557 288.347C389.232 286.978 388.956 285.624 388.736 284.299V284.293C387.933 279.435 387.877 274.929 388.994 271.26C390.986 264.726 395.475 263.497 398.924 263.63C399.28 263.642 399.626 263.674 399.959 263.711C400.295 263.752 400.629 263.816 400.951 263.903C401.557 264.062 402.131 264.306 402.664 264.616C402.671 264.616 402.671 264.619 402.673 264.622C403.558 265.138 404.32 265.849 404.912 266.716C404.912 266.716 407.824 270.518 411.73 275.628C414.3 278.992 417.301 282.921 420.184 286.708C425.317 293.457 430.084 299.753 431.395 301.597C438.479 311.57 457.556 344.07 457.556 344.07L479.886 345.007C483.424 345.155 486.791 346.564 489.377 348.98C497.318 356.395 514.436 372.441 516.536 374.828C516.536 375.61 529.84 382.007 540.116 387.704C547.467 390.81 561.431 401.818 561.431 401.818C564.325 404.373 566.529 406.916 567.646 409.347C572.434 419.766 585.42 510.388 591.629 555.187C593.627 569.589 594.923 579.255 595.025 580Z" fill="#FFB17C"/>
<path d="M457.557 344.069C457.557 344.069 478.243 377.837 480.981 379.358C483.719 380.879 494.367 383.009 495.584 379.358C496.8 375.708 457.557 344.069 457.557 344.069Z" fill="#EEA16E"/>
<path d="M561.535 401.911C561.5 401.881 561.466 401.85 561.431 401.818C561.431 401.818 547.467 390.81 540.116 387.704C530.681 382.474 518.696 376.654 516.796 375.13C518.987 377.634 534.393 395.069 540.321 396.376C545.527 397.524 557.351 400.757 561.535 401.911Z" fill="#EEA16E"/>
<path d="M440.777 468.678V418.428C440.777 418.428 452.714 438.397 453.626 449.349C454.539 460.297 448.668 478.027 440.777 468.678Z" fill="#EEA16E"/>
<path d="M377.447 369.826L376.625 392.762C376.625 392.762 381.447 393.547 384.19 391.5C386.932 389.453 385.48 369.557 377.447 369.826Z" fill="#FFC196"/>
<path d="M527.994 559.366L488.139 580H461.607C455.21 575.711 421.984 553.048 408.235 536.152C405.324 532.571 394.666 501.714 386.477 476.662V476.65C387.564 479.976 410.419 528.652 416.927 534.186C423.434 539.716 457.602 571.932 467.039 571.604C476.179 571.291 524.842 560.091 527.857 559.398C527.904 559.39 527.948 559.378 527.994 559.366Z" fill="#EEA16E"/>
<path d="M608.185 580H464.501C471.708 577.172 499.278 566.64 527.858 559.398C527.904 559.39 527.947 559.378 527.994 559.366C552.54 553.157 577.807 549.393 591.53 555.04L591.629 555.187L608.185 580Z" fill="#D2E2FB"/>
<path d="M376.705 390.214C376.709 390.214 376.711 390.214 376.715 390.211C379.136 389.323 382.536 388.737 384.189 391.5C386.763 395.798 377.2 433.717 376.006 438.487L376.705 390.214Z" fill="#EEA16E"/>
<path d="M397.465 284.285C395.719 281.292 392.593 275.865 391.519 272.83C391.214 271.971 391.253 270.254 392.309 268.424C392.94 267.326 393.935 266.188 395.44 265.173C396.148 264.695 396.866 264.272 397.639 263.987C398.545 263.659 399.485 263.481 400.452 263.468C401.324 263.459 402.234 263.966 402.855 264.865C402.859 264.868 402.86 264.875 402.864 264.878C404.937 267.898 407.558 272.007 409.34 275.726C410.575 278.296 410.184 281.263 408.386 282.566L407.547 283.18L403.248 286.318C401.462 287.619 398.887 286.731 397.465 284.285Z" fill="#FFD2B6"/>
<path d="M397.465 284.285C395.719 281.292 392.594 275.865 391.519 272.829C391.215 271.971 391.253 270.254 392.309 268.424C392.589 268.19 392.891 267.967 393.217 267.746C393.925 267.268 394.642 266.845 395.415 266.56C396.322 266.232 397.262 266.054 398.229 266.042C399.101 266.032 400.011 266.54 400.632 267.438C400.636 267.441 400.637 267.448 400.641 267.451C402.714 270.471 405.335 274.58 407.117 278.298C407.909 279.945 408.033 281.752 407.547 283.18L403.248 286.318C401.462 287.619 398.887 286.731 397.465 284.285Z" fill="#FFC196"/>
</g>
<defs>
<clipPath id="clip0_444_104">
<rect width="667" height="580" fill="white"/>
</clipPath>
</defs>
</svg>
