<svg width="1200" height="646" viewBox="0 0 1200 646" fill="none" xmlns="http://www.w3.org/2000/svg">
<path d="M409.892 68.2687L414.265 74.1443L422.263 77.3667L414.265 80.5821L409.892 86.4578L405.52 80.5821L397.522 77.3667L405.52 74.1443L409.892 68.2687Z" fill="#FFDAA5"/>
<path d="M758.77 370.946L762.051 375.361L768.046 377.767L762.051 380.181L758.77 384.596L755.487 380.181L749.494 377.767L755.487 375.361L758.77 370.946Z" fill="#FFDAA5"/>
<path d="M776.513 325.875L777.996 327.863L780.698 328.953L777.996 330.043L776.513 332.031L775.04 330.043L772.327 328.953L775.04 327.863L776.513 325.875Z" fill="#FFDAA5"/>
<path d="M350.138 67L351.621 68.9951L354.324 70.0784L351.621 71.1685L350.138 73.1567L348.665 71.1685L345.953 70.0784L348.665 68.9951L350.138 67Z" fill="#FFDAA5"/>
<path d="M522.756 530.661C520.457 531.02 518.128 531.266 515.783 531.395C513.452 531.644 511.1 531.771 508.745 531.779C511.047 531.419 513.38 531.174 515.727 531.046C518.056 530.801 520.404 530.673 522.756 530.661Z" fill="#FFDAA5"/>
<path d="M810.054 95.9982L811.108 97.4174L813.028 98.1921L811.108 98.9668L810.054 100.379L809.001 98.9668L807.081 98.1921L809.001 97.4174L810.054 95.9982Z" fill="#FFDAA5"/>
<path d="M852.152 163.104L853.204 164.523L855.125 165.297L853.204 166.072L852.152 167.485L851.098 166.072L849.167 165.297L851.098 164.523L852.152 163.104Z" fill="#FFDAA5"/>
<path d="M177.514 342.139L178.568 343.558L180.498 344.333L178.568 345.1L177.514 346.52L176.46 345.1L174.54 344.333L176.46 343.558L177.514 342.139Z" fill="#FFDAA5"/>
<path d="M754.833 115.295L757.265 118.566L761.713 120.355L757.265 122.138L754.833 125.408L752.409 122.138L747.963 120.355L752.409 118.566L754.833 115.295Z" fill="#FFDAA5"/>
<path d="M215.241 302.213L217.665 305.47L222.102 307.252L217.665 309.042L215.241 312.298L212.817 309.042L208.38 307.252L212.817 305.47L215.241 302.213Z" fill="#FFDAA5"/>
<path d="M863.598 451.01L866.022 454.274L870.45 456.056L866.022 457.839L863.598 461.103L861.174 457.839L856.737 456.056L861.174 454.274L863.598 451.01Z" fill="#FFDAA5"/>
<g opacity="0.999998">
<path d="M329.587 195.017C295.848 195.017 268.496 174.902 268.496 150.088C268.496 125.275 295.848 105.159 329.587 105.159C363.327 105.159 390.679 125.275 390.679 150.088C390.679 174.902 363.327 195.017 329.587 195.017Z" fill="#22A8FF"/>
<path d="M301.877 140.082H314.519V170.127H301.877V140.082Z" fill="white"/>
<path d="M308.136 136.148C312.301 136.177 315.709 133.716 315.748 130.653C315.787 127.589 312.446 125.082 308.278 125.054C304.113 125.024 300.703 127.485 300.664 130.548C300.662 130.566 300.664 130.583 300.664 130.6C300.655 133.647 303.993 136.125 308.136 136.148Z" fill="white"/>
<path d="M334.741 154.35C334.741 150.128 337.38 147.61 342.444 147.61C347.08 147.61 349.327 150.023 349.327 154.35V170.087H361.898V151.098C361.898 143.046 355.711 139.164 347.044 139.164C342.044 139.117 337.378 140.997 334.741 144.121V140.082H322.597V170.114H334.741V154.35Z" fill="white"/>
</g>
<g opacity="0.999998">
<path d="M208.233 417.815C214.958 415.549 219.205 410.56 219.039 405.12C219.039 397.606 211.104 391.573 201.529 391.626C191.953 391.678 184.268 397.829 184.357 405.343C184.305 410.83 188.752 415.801 195.626 417.933C168.986 421.146 170.555 442.47 170.555 442.47L233.661 442.076C233.661 442.076 234.749 420.503 208.233 417.815Z" fill="#DFDFDF"/>
</g>
<g opacity="0.999998">
<path d="M813.638 558.373C812.604 554.456 807.445 551.897 802.119 552.659C797.98 553.251 794.815 555.719 794.255 558.791C793.501 554.84 788.533 552.086 783.158 552.642C778.989 553.072 775.656 555.408 774.874 558.452C774.406 560.937 775.262 563.46 777.263 565.494C779.242 567.498 781.568 569.306 784.18 570.87C787.746 573.192 790.974 575.355 794.506 577.664C798.073 575.33 800.978 573.14 804.473 570.804C807.074 569.224 809.383 567.398 811.338 565.376C813.29 563.342 814.114 560.837 813.638 558.373Z" fill="#EBEBEB"/>
</g>
<g opacity="0.999998">
<path d="M853.405 278.66L860.161 277.676L870.86 260.392L868.185 250.464C868.185 250.464 878.508 248.471 880.791 261.651C883.075 274.831 883.503 271.329 883.503 271.329C883.503 271.329 905.702 268.156 907.93 269.296C909.553 270.136 914.528 286.266 917.132 295.027C918.615 299.348 915.901 303.855 910.554 305.951C909.814 306.219 909.027 306.414 908.216 306.528C902.69 307.341 873.515 308.154 873.515 308.154L861.836 309.859L853.405 278.66Z" fill="#DFDFDF"/>
<path d="M833.307 278.752L846.627 312.167L858.217 310.475L849.23 277.152L833.307 278.752Z" fill="#DFDFDF"/>
</g>
<g opacity="0.999998">
<path d="M801.673 270.791C765.687 283.655 722.336 272.637 704.829 246.176C687.338 219.71 702.32 187.827 738.299 174.953C774.283 162.081 817.639 173.101 835.141 199.564C835.143 199.565 835.143 199.567 835.145 199.568C852.645 226.031 837.663 257.918 801.68 270.79C801.678 270.79 801.675 270.791 801.673 270.791Z" fill="#E61F1F"/>
<path d="M752.083 234.78C753.067 234.763 753.847 234.163 753.825 233.439C753.822 233.348 753.806 233.257 753.777 233.168C753.599 232.525 753.117 230.899 752.937 230.23C752.689 229.299 752.386 229.05 751.154 228.63C747.96 227.55 745.421 225.639 744.021 223.265C738.567 215.004 742.079 204.604 755.56 199.791C767.49 195.516 777.6 198.48 782.308 205.692C788.529 215.122 788.121 225.103 779.704 228.119C776.002 229.617 771.352 228.624 769.314 225.901C768.945 225.41 768.679 224.88 768.524 224.329C767.131 219.713 766.741 214.323 764.779 211.333C762.996 208.71 759.572 207.122 755.541 208.564C750.781 210.269 749.355 215.254 752.564 220.093C753.709 221.883 755.355 223.474 757.395 224.762C757.395 224.762 762.568 241.652 763.46 244.615C765.243 250.504 770.985 256.418 771.537 257.087C771.767 257.303 772.194 257.344 772.488 257.175C772.613 257.103 772.698 257.003 772.732 256.892C772.893 256.315 775.155 249.154 773.677 243.331C773.267 241.679 770.86 233.22 770.86 233.22C773.838 234.833 779.613 235.135 784.412 233.417C798.677 228.303 802.065 215.254 793.577 202.428C787.176 192.737 770.022 187.7 753.064 193.772C731.933 201.325 728.652 216.264 734.786 225.549C738.495 231.175 744.647 235.186 752.083 234.78Z" fill="white"/>
</g>
<g opacity="0.999998">
<path d="M856.185 419.125C830.42 411.899 817.499 390.682 827.322 371.732C827.331 371.715 827.342 371.696 827.351 371.678C837.171 352.728 866.021 343.22 891.787 350.442C891.807 350.447 891.827 350.454 891.848 350.459C917.613 357.685 930.534 378.904 920.71 397.853C920.701 397.871 920.691 397.889 920.682 397.906C910.862 416.858 882.012 426.365 856.245 419.143C856.226 419.137 856.206 419.132 856.185 419.125Z" fill="#43D832"/>
<path d="M900.122 391.036C904.904 380.687 897.378 369.45 883.307 365.931C870.14 362.638 855.73 367.267 850.068 376.61C849.91 376.872 849.765 377.148 849.623 377.41C847.879 380.752 847.42 384.38 848.303 387.901L838.656 396.465L854.277 397.121C863.874 405.465 880.851 406.508 892.198 399.452C895.618 397.324 898.262 394.603 899.89 391.533C899.981 391.37 900.058 391.204 900.122 391.036ZM866.741 399.862C862.608 398.707 859.029 396.683 856.452 394.04L847.34 393.658L852.959 388.675C851.698 385.317 851.928 381.752 853.617 378.498C853.884 378 854.187 377.502 854.508 377.031C860.141 368.825 873.751 365.532 884.908 369.674C894.621 373.28 899.469 381.46 896.449 389.147C896.288 389.566 896.11 389.973 895.896 390.38C891.399 398.913 878.353 403.157 866.741 399.862Z" fill="white"/>
<path d="M884.357 391.377C883.84 390.983 881.395 389.044 880.898 388.754C880.396 388.465 880.04 388.255 879.398 388.598C878.756 388.939 877.03 389.606 876.529 389.804C876.03 390 875.637 389.934 875.138 389.542C873.595 388.502 872.31 387.273 871.34 385.908C870.475 384.627 869.874 383.256 869.557 381.843C869.451 381.293 869.878 381.133 870.306 381.003C870.733 380.871 871.197 380.648 871.643 380.477L871.982 380.32C872.214 380.188 872.435 380.043 872.643 379.887C872.952 379.689 873.094 379.385 873.018 379.09C873.018 378.828 872.889 376.256 872.836 375.22C872.782 374.184 872.196 374.184 871.837 374.079C871.481 373.973 871.092 373.817 870.68 373.712C870.043 373.543 869.339 373.577 868.736 373.805C866.83 374.391 865.343 375.536 864.633 376.964C864.375 377.482 864.214 378.025 864.154 378.576C864.052 379.837 864.252 381.103 864.742 382.315C864.903 382.695 866.418 388.493 871.732 392.06C877.046 395.626 877.385 395.022 878.562 395.26C880.454 395.53 882.41 395.174 883.911 394.289C884.671 393.734 885.186 393.028 885.391 392.257C885.195 392.006 884.856 391.771 884.357 391.377Z" fill="white"/>
</g>
<g opacity="0.999998">
<path d="M209.794 250.337C188.749 250.337 171.687 237.789 171.687 222.312C171.687 206.835 188.749 194.287 209.794 194.287C230.839 194.287 247.9 206.835 247.9 222.312C247.9 237.789 230.839 250.337 209.794 250.337Z" fill="#4C89E7"/>
<path d="M189.501 231.662C200.543 236.844 215.206 234.46 222.251 226.338C224.872 223.315 226.165 219.771 225.949 216.188C227.559 215.327 228.954 214.268 230.068 213.055C228.542 213.548 226.926 213.873 225.272 214.024C227.016 213.275 228.332 212.087 228.981 210.68C227.329 211.401 225.52 211.903 223.631 212.162C220.521 209.659 215.243 209.486 211.841 211.773C209.59 213.287 208.64 215.584 209.366 217.763C202.665 217.51 196.425 215.178 192.194 211.349C189.993 214.151 191.124 217.729 194.779 219.532C193.455 219.507 192.156 219.246 190.999 218.771C190.953 221.717 193.759 224.273 197.686 224.858C196.459 225.104 195.172 225.138 193.924 224.961C195.018 227.451 198.139 229.158 201.698 229.21C198.225 231.169 193.847 232.048 189.501 231.662Z" fill="white"/>
</g>
<g opacity="0.999998">
<path d="M253.25 561.874C218.011 568.029 182.654 552.023 174.255 526.112C165.851 500.187 187.615 474.157 222.868 467.975C222.891 467.973 222.911 467.968 222.934 467.964C258.189 461.784 293.58 477.793 301.982 503.72C301.982 503.722 301.982 503.725 301.982 503.726C310.381 529.655 288.61 555.679 253.355 561.855C253.321 561.861 253.285 561.868 253.25 561.874Z" fill="#455A63"/>
<path d="M231.261 493.825C240.605 492.186 241.728 492.015 245.527 491.492C247.748 491.125 250.043 491.039 252.304 491.243C253.959 491.39 255.55 491.805 256.959 492.461C258.38 493.097 259.596 493.951 260.525 494.966C261.786 496.363 262.715 497.906 263.271 499.531C264.323 502.219 264.626 503.032 266.837 509.904C269.048 516.775 269.28 517.6 269.994 520.394C270.502 522.027 270.618 523.714 270.332 525.378C270.15 526.599 269.582 527.77 268.674 528.799C267.822 529.848 266.664 530.744 265.286 531.422C263.382 532.351 261.277 533.035 259.063 533.443C255.496 534.217 254.319 534.441 244.976 536.066C235.632 537.693 234.508 537.874 230.71 538.4C228.483 538.774 226.181 538.856 223.915 538.649C222.258 538.506 220.667 538.088 219.262 537.428C217.854 536.774 216.671 535.893 215.803 534.847C214.53 533.455 213.594 531.909 213.037 530.281C212.003 527.593 211.7 526.794 209.471 519.922C207.242 513.05 207.01 512.225 206.297 509.432C205.807 507.792 205.692 506.104 205.958 504.434C206.4 501.982 208.242 499.784 211.022 498.39C212.918 497.456 215.015 496.769 217.228 496.357C220.794 495.597 221.989 495.374 231.333 493.734L231.261 493.825ZM229.835 489.092C220.33 490.758 219.137 490.992 215.446 491.78C212.558 492.308 209.813 493.194 207.333 494.403C203.076 496.567 200.248 499.944 199.539 503.713C199.164 505.899 199.296 508.118 199.931 510.27C200.662 513.039 200.894 513.929 203.158 520.92C205.423 527.91 205.744 528.789 206.725 531.49C207.438 533.615 208.645 535.633 210.291 537.457C211.743 539.062 213.661 540.412 215.908 541.405C218.071 542.405 220.505 543.046 223.041 543.279C226.013 543.557 229.029 543.457 231.957 542.99C235.719 542.464 236.932 542.282 246.436 540.616C255.94 538.951 257.137 538.715 260.81 537.994C263.694 537.457 266.436 536.571 268.924 535.371C271.049 534.315 272.839 532.934 274.166 531.318C275.52 529.725 276.393 527.936 276.732 526.073C277.101 523.887 276.964 521.669 276.324 519.516C275.61 516.737 275.361 515.857 273.096 508.868C270.832 501.878 270.511 501 269.53 498.285C268.797 496.165 267.592 494.148 265.964 492.318C264.528 490.758 262.647 489.447 260.454 488.474C258.294 487.467 255.858 486.822 253.321 486.587C250.348 486.309 247.333 486.408 244.405 486.876C240.625 487.413 239.428 487.584 229.924 489.249" fill="white"/>
<path d="M233.815 501.707C223.89 503.445 217.761 510.772 220.125 518.072C222.49 525.371 232.452 529.878 242.378 528.138C252.299 526.399 258.428 519.075 256.067 511.778C253.695 504.48 243.74 499.974 233.815 501.707ZM240.947 523.515C234.496 524.635 228.034 521.699 226.509 516.954C224.986 512.211 228.981 507.456 235.432 506.336C241.873 505.217 248.33 508.144 249.863 512.88C251.399 517.621 247.419 522.382 240.971 523.512C240.964 523.513 240.955 523.514 240.947 523.515Z" fill="white"/>
<path d="M256.531 497.183C257.076 498.889 255.637 500.6 253.317 500.999C250.996 501.401 248.674 500.341 248.13 498.635C247.586 496.935 249.015 495.231 251.324 494.823C253.629 494.408 255.955 495.448 256.518 497.144C256.523 497.156 256.527 497.169 256.531 497.183Z" fill="white"/>
</g>
<g opacity="0.999998">
<path d="M774.711 519.725C757.812 519.733 744.105 509.663 744.094 497.236V497.221C744.094 484.793 757.796 474.719 774.694 474.719H774.711C791.612 474.696 805.336 484.754 805.364 497.183V497.221C805.364 509.65 791.666 519.725 774.765 519.725H774.711Z" fill="#455A63"/>
<path d="M770.039 510.821H777.493V497.143H782.682L783.251 492.553H777.493V489.93C777.493 488.855 777.796 488.422 779.276 488.422H783.321V483.648H778.153C772.605 483.648 770.109 485.445 770.109 488.894V492.566H766.134V497.143H770L770.039 510.821Z" fill="white"/>
</g>
<path d="M668.764 645.071L422.883 645.006C393.339 645.006 369.388 627.392 369.388 605.663L369.495 152.331C369.495 130.603 393.446 112.988 422.99 112.988H423.097L668.96 113.093C698.506 113.093 722.456 130.708 722.456 152.436L722.35 605.663C722.399 627.392 698.488 645.036 668.944 645.071H668.764Z" fill="#253138"/>
<path d="M668.693 128.987H621.011C614.495 129.101 609.328 133.061 609.438 137.853V144.213C609.588 149.014 604.415 152.994 597.889 153.104C597.88 153.104 597.872 153.104 597.864 153.104H504.941C498.404 152.997 493.225 149.013 493.371 144.205V144.2V137.8C493.5 132.996 488.33 129.018 481.797 128.896H464.999H423.291C402.612 128.859 385.805 141.16 385.757 156.37V156.435L385.632 598.922C385.632 614.132 402.398 626.462 423.079 626.462L668.477 626.567C689.158 626.567 705.924 614.237 705.924 599.027L706.047 156.527C706.047 141.342 689.338 129.023 668.693 128.987Z" fill="white"/>
<path d="M672.277 164.933C672.277 165.052 666.072 165.183 658.44 165.222C650.808 165.261 644.585 165.222 644.585 165.104C644.585 164.986 650.77 164.842 658.42 164.802C666.072 164.763 672.277 164.815 672.277 164.933Z" fill="#253138"/>
<path d="M672.329 170.14C672.329 170.258 666.141 170.389 658.491 170.442C650.842 170.494 644.636 170.442 644.636 170.31C644.636 170.179 650.842 170.061 658.491 170.009C666.141 169.956 672.329 170.022 672.329 170.14Z" fill="#253138"/>
<path d="M672.402 175.346C672.402 175.464 666.198 175.608 658.547 175.648C650.897 175.687 644.711 175.648 644.692 175.517C644.674 175.386 650.897 175.268 658.547 175.215C666.198 175.163 672.402 175.228 672.402 175.346Z" fill="#253138"/>
<path d="M411.504 180.434H412.235H414.25L421.704 180.303L421.49 180.448C421.49 179.241 421.49 177.917 421.401 176.513V174.231C421.642 173.328 422.653 172.643 423.897 172.54H427.466C428.874 172.706 429.908 173.602 429.908 174.651C429.908 176.513 429.908 178.441 429.998 180.448L429.659 180.198H439.056L438.7 180.461C438.7 177.68 438.698 174.795 438.591 171.845V169.655C438.509 168.994 438.025 168.396 437.273 168.028L433.172 165.038L429.195 162.166L427.287 160.776C426.627 160.304 426.109 159.819 425.342 159.701C424.598 159.557 423.805 159.668 423.184 160.002C422.614 160.357 422.007 160.855 421.401 161.314L418.013 163.819C415.891 165.432 413.68 166.914 412.075 168.317C411.599 169.144 411.438 170.051 411.611 170.94V173.366V177.3V179.805C411.636 180.107 411.636 180.408 411.611 180.71C411.59 180.434 411.59 180.159 411.611 179.884V177.405C411.611 176.421 411.611 174.953 411.487 173.471V170.979V169.668C411.483 169.161 411.661 168.663 412.004 168.225C413.787 166.665 415.82 165.274 417.959 163.609L421.312 161.078C421.918 160.645 422.4 160.212 423.095 159.766C423.872 159.331 424.88 159.182 425.825 159.36C426.713 159.6 427.494 160.012 428.088 160.553L430.015 161.943L433.99 164.815L438.111 167.779C438.496 168.034 438.849 168.316 439.163 168.619C439.472 168.966 439.645 169.37 439.662 169.786V171.989C439.662 174.94 439.662 177.825 439.752 180.605V180.867H439.395H429.998H429.338V180.618V174.822C429.363 173.994 428.555 173.279 427.446 173.143H424.022C423.036 173.215 422.225 173.744 422.007 174.454V176.658V180.592V180.749H421.793H414.215H412.235C411.979 180.663 411.733 180.558 411.504 180.434Z" fill="#253138"/>
<path d="M573.775 526.204C572.921 526.302 572.054 526.346 571.189 526.335L564.163 526.44C558.243 526.504 550.041 526.545 540.982 526.545C531.924 526.545 523.721 526.545 517.801 526.44L510.775 526.335C509.91 526.346 509.046 526.301 508.19 526.204C509.044 526.098 509.91 526.053 510.775 526.072L517.801 525.955C523.721 525.955 531.924 525.863 540.982 525.863C550.041 525.863 558.225 525.863 564.163 525.955L571.189 526.072C572.054 526.053 572.921 526.096 573.775 526.204Z" fill="#455A63"/>
<path d="M676.789 538.059C676.789 538.255 639.039 538.4 592.482 538.4C545.922 538.4 508.172 538.255 508.172 538.059C508.172 537.863 545.922 537.718 592.482 537.718C639.039 537.718 676.789 537.874 676.789 538.059Z" fill="#455A63"/>
<path d="M624.096 549.272C624.096 549.468 598.151 549.613 566.143 549.613C534.135 549.613 508.172 549.468 508.172 549.272C508.172 549.075 534.117 548.931 566.143 548.931C598.169 548.931 624.096 549.036 624.096 549.272Z" fill="#455A63"/>
<path d="M680.123 570.95L674.882 567.081L669.888 570.74V559.671H680.107L680.123 570.95ZM674.882 566.596L675.043 566.714L679.661 570.123V560.025H670.369V569.927L674.882 566.596Z" fill="#253138"/>
<path d="M540.624 569.507L538.842 568.904C536.482 569.721 533.666 568.976 532.555 567.239C531.444 565.502 532.457 563.432 534.818 562.614C537.181 561.797 539.996 562.545 541.107 564.281C541.934 565.573 541.601 567.104 540.269 568.143L540.624 569.507ZM536.328 562.137C533.686 562.273 531.692 563.958 531.877 565.902C532.047 567.683 533.994 569.089 536.417 569.179C537.232 569.138 538.02 568.953 538.718 568.641L540.091 569.089L539.77 568.105C541.553 566.673 541.419 564.45 539.474 563.139C538.582 562.538 537.412 562.209 536.203 562.217L536.328 562.137Z" fill="#253138"/>
<path d="M552.5 568.942L550.394 565.139L546.421 562.516H556.046L552.5 568.942ZM547.312 562.739L550.697 565.021L552.48 568.261L555.513 562.688L547.312 562.739Z" fill="#253138"/>
<path d="M550.588 564.95L555.849 562.432L556.045 562.651L550.781 565.17L550.588 564.95Z" fill="#253138"/>
<path d="M525.451 563.252C525.119 562.067 523.543 561.305 521.933 561.549C520.697 561.737 519.757 562.477 519.584 563.395C519.361 562.197 517.862 561.361 516.232 561.523C514.946 561.652 513.923 562.377 513.7 563.317C513.562 564.073 513.825 564.837 514.431 565.455C515.034 566.062 515.741 566.61 516.535 567.082C517.623 567.777 518.603 568.394 519.673 569.127C520.743 568.419 521.635 567.751 522.705 567.043C523.489 566.56 524.185 566.006 524.773 565.391C525.371 564.77 525.613 564.002 525.451 563.252Z" fill="#7D0681" fill-opacity="0.62"/>
<path d="M690.858 580.746V579.513V575.92C690.858 572.759 690.858 568.051 690.769 562.071C690.769 550.019 690.678 532.486 690.606 510.493L690.911 510.716L405.764 510.834L406.228 510.493V580.746L405.782 580.418L609.83 580.562L669.388 580.654H685.437H689.574H691H689.627H685.544H669.654L610.187 580.746L405.836 580.903H405.372V580.746V510.493V510.152H405.871L691.018 510.27H691.321V510.493C691.321 532.538 691.195 550.124 691.161 562.216V576.012V579.553C691.161 580.366 690.858 580.746 690.858 580.746Z" fill="#253138"/>
<path d="M417.209 568.687L417.571 522.238L496.563 522.572L496.201 569.024L417.209 568.687Z" fill="#EBEBEB"/>
<path d="M496.546 522.546H495.03H490.715H474.506L417.444 522.453L417.872 522.152C417.783 535.987 417.676 551.83 417.569 568.59C417.658 568.682 416.695 567.946 417.105 568.248H422.544H427.893H438.593L459.099 568.341L496.082 568.537L495.707 568.825C495.886 554.87 496.046 543.306 496.171 535.175C496.171 531.136 496.296 527.961 496.332 525.744V523.253V522.375V523.189V525.639V535.005V568.825V569.102H495.939L458.956 568.997L438.45 568.918H427.751H422.401H416.963L416.481 568.563C416.642 551.79 416.766 535.948 416.891 522.125V521.809H417.319L474.559 522.191L490.608 522.35H494.834H495.904L496.546 522.546Z" fill="#253138"/>
<path d="M419.96 565.776L420.278 525.176L493.726 525.487L493.407 566.087L419.96 565.776Z" fill="#DFDFDF"/>
<path d="M419.923 565.743L445.779 540.616L461.542 556.473L472.384 548.078L493.372 566.058L419.923 565.743Z" fill="#F5F5F5"/>
<path d="M468.445 537.626C468.434 539.98 465.83 541.883 462.63 541.877C459.429 541.869 456.843 539.954 456.854 537.6C456.863 535.248 459.465 533.345 462.665 533.353H462.685C465.875 533.359 468.453 535.267 468.445 537.615V537.626Z" fill="#F5F5F5"/>
<path d="M550.754 221.246C550.47 221.281 550.182 221.281 549.9 221.246L547.491 221.311L538.575 221.429C531.068 221.429 520.743 221.521 509.224 221.521C497.705 221.521 487.38 221.521 479.873 221.429L470.957 221.311L468.532 221.246C468.256 221.281 467.972 221.281 467.694 221.246C467.968 221.196 468.25 221.174 468.532 221.18H470.957L479.873 221.075C487.38 221.01 497.705 220.97 509.224 220.97C520.743 220.97 531.068 220.97 538.575 221.075L547.491 221.18H549.9C550.187 221.175 550.474 221.196 550.754 221.246Z" fill="#253138"/>
<path d="M667.445 477.999L659.67 472.253L652.234 477.696V461.249H667.427L667.445 477.999ZM659.67 471.545L659.902 471.717L666.767 476.778V461.775H652.93V476.491L659.67 471.545Z" fill="#253138"/>
<path d="M469.762 476.265L466.196 475.071C461.588 476.648 456.116 475.178 453.974 471.789C451.831 468.4 453.828 464.374 458.436 462.799C463.043 461.223 468.516 462.693 470.659 466.082C472.252 468.598 471.59 471.575 468.996 473.589L469.762 476.265ZM461.257 461.774C456.057 461.805 451.877 464.931 451.922 468.757C451.966 472.581 456.217 475.655 461.417 475.622C463.022 475.551 464.577 475.189 465.946 474.573L466.107 474.507L468.782 475.386L468.175 473.444L468.3 473.353C471.808 470.539 471.547 466.168 467.721 463.589C465.959 462.402 463.646 461.751 461.257 461.774Z" fill="#253138"/>
<path d="M493.158 475.124L488.985 467.636L481.175 462.39L500.148 462.285L493.158 475.124ZM482.94 462.888L489.609 467.387L493.175 473.76L499.131 462.797L482.94 462.888Z" fill="#253138"/>
<path d="M489.425 467.212L499.77 462.263L500.149 462.692L489.803 467.642L489.425 467.212Z" fill="#253138"/>
<path d="M439.914 464.029C439.286 461.692 436.201 460.171 433.022 460.631C430.552 460.991 428.666 462.469 428.339 464.305C427.861 461.948 424.876 460.322 421.672 460.672C419.192 460.944 417.219 462.347 416.766 464.16C416.499 465.644 417.016 467.147 418.211 468.357C419.407 469.552 420.804 470.631 422.366 471.57C424.488 472.881 426.433 474.193 428.555 475.596C430.623 474.206 432.407 472.895 434.493 471.491C436.034 470.538 437.405 469.446 438.576 468.239C439.736 467.013 440.215 465.507 439.914 464.029Z" fill="#7D0681" fill-opacity="0.62"/>
<path d="M438.182 211.777C445.292 211.777 451.057 216.016 451.057 221.246C451.057 226.476 445.292 230.714 438.182 230.714C431.073 230.714 425.308 226.476 425.308 221.246C425.308 216.016 431.073 211.777 438.182 211.777Z" fill="#EBEBEB"/>
<path d="M662.595 423.703C662.595 423.9 608.634 424.057 542.088 424.057C475.54 424.057 421.563 423.9 421.563 423.703C421.563 423.506 475.52 423.362 542.088 423.362C608.652 423.362 662.595 423.519 662.595 423.703Z" fill="#455A63"/>
<path d="M662.595 408.95C662.595 409.133 608.634 409.291 542.088 409.291C475.54 409.291 421.563 409.133 421.563 408.95C421.563 408.766 475.52 408.609 542.088 408.609C608.652 408.609 662.595 408.766 662.595 408.95Z" fill="#455A63"/>
<path d="M552.751 438.667C552.751 438.85 523.382 439.008 487.166 439.008C450.95 439.008 421.563 438.85 421.563 438.667C421.563 438.482 450.932 438.326 487.166 438.326C523.4 438.326 552.751 438.482 552.751 438.667Z" fill="#455A63"/>
<path d="M536.578 599.487C536.53 601.573 534.19 603.233 531.353 603.196C528.518 603.161 526.259 601.44 526.308 599.354C526.358 597.284 528.664 595.631 531.48 595.644C534.324 595.665 536.608 597.381 536.578 599.473V599.487Z" fill="#253138"/>
<path d="M552.377 599.539C552.318 601.617 549.978 603.268 547.152 603.225C544.327 603.181 542.086 601.46 542.145 599.381C542.202 597.328 544.484 595.69 547.277 595.698C550.112 595.712 552.396 597.413 552.377 599.499V599.539Z" fill="#253138"/>
<path d="M568.3 599.591C568.242 601.67 565.902 603.321 563.078 603.278C560.251 603.233 558.01 601.512 558.069 599.434C558.126 597.38 560.41 595.742 563.202 595.75C566.046 595.771 568.331 597.486 568.3 599.578V599.591Z" fill="#253138"/>
<path d="M407.387 239.973H692.57V368.23H407.387V239.973Z" fill="#DFDFDF"/>
<path d="M433.724 368.271L515.429 287.828L566.107 338.134L600.433 311.224L667.784 368.218L433.724 368.271Z" fill="#F5F5F5"/>
<path d="M587.578 277.95C587.587 285.44 579.34 291.517 569.156 291.524C558.973 291.53 550.711 285.468 550.7 277.978C550.692 270.49 558.939 264.413 569.121 264.405H569.138C579.313 264.405 587.568 270.466 587.578 277.95Z" fill="#F5F5F5"/>
<path d="M691.803 487.438C691.803 484.697 691.623 368.835 691.375 197.299L691.803 197.614H406.654L407.119 197.273V487.412L406.725 487.138L691.91 487.412L406.725 487.701H406.351V487.412C406.351 406.197 406.351 305.78 406.264 197.273V196.932H406.761H691.91H692.338V197.234C692.249 283.093 692.177 355.654 692.124 406.773C692.124 432.293 692.035 452.45 692.015 466.247V481.984V486.022C692.015 486.94 691.803 487.438 691.803 487.438Z" fill="#253138"/>
<path d="M557.323 526.349L563.457 511.198C564.532 507.91 565.953 504.034 567.859 499.613C569.592 495.636 573.993 491.456 578.013 488.448C584.269 483.771 587.249 483.746 591.443 481.261C591.824 481.082 592.257 480.817 592.621 480.676C593.413 480.358 594.11 479.924 594.666 479.401C598.287 476.521 594.804 472.048 587.44 472.48C581.912 472.799 572.867 473.96 558.172 485.111C557.982 485.288 557.791 485.429 557.618 485.595C549.907 492.974 542.663 471.919 541.347 464.083C540.406 459.61 534.713 456.545 528.631 457.237C527.818 457.33 527.019 457.488 526.254 457.711L490.453 470.022C487.038 469.294 483.397 469.383 480.056 470.277C474.865 471.617 471.908 475.638 473.229 479.566L487.767 522.143L445.122 626.519H537.049L557.323 526.349Z" fill="#FFBD9D"/>
<path d="M628.023 430.49L599.606 471.449L585.395 468.544L514.002 511.274C507.944 514.92 499.039 514.356 493.919 510L466.713 486.767C466.713 486.767 521.558 469.397 531.695 455.022C541.832 440.647 530.118 437.372 530.118 437.372L555.921 415.808L628.023 430.49Z" fill="#7D0681" fill-opacity="0.62"/>
<path d="M475.343 483.913C478.653 488.322 482.014 492.834 486.884 496.313C491.753 499.792 498.407 502.264 505.338 501.754C512.27 501.245 518.594 497.09 518.664 492.069C521.921 493.866 526.929 492.897 529.633 490.642C532.336 488.386 533.22 485.264 533.531 482.269C537.967 484.193 544.136 482.677 547.1 479.58C549.855 476.313 550.491 472.316 548.832 468.671C547.145 465.089 544.743 461.708 541.71 458.641C545.176 458.845 548.746 459.024 551.795 457.889C554.845 456.755 556.994 453.773 555.14 451.632C553.922 450.437 552.154 449.608 550.167 449.3C544.812 448.026 541.069 447.083 535.49 447.554C534.207 447.554 537.725 458.361 502.774 473.119C482.032 481.848 475.343 483.913 475.343 483.913Z" fill="#452B45"/>
<path d="M477.613 477.018C483.245 480.995 487.092 485.391 493 489.393C495.686 491.216 499.932 494.656 503.397 495.115C506.863 495.575 509.289 495.23 510.71 492.758C511.871 490.756 509.792 488.016 508.371 486.387C504.61 482.04 501.006 478.65 498.199 475.272C496.865 473.693 498.58 473.36 499.204 474.099C501.907 476.163 505.962 477.923 508.388 480.204C511.715 483.276 512.304 487.367 521.003 486.068C522.166 485.928 523.27 485.593 524.226 485.085C527.501 483.237 527.692 479.988 526.271 477.439C525.044 475.471 523.406 473.655 521.419 472.06C525.127 475.132 529.165 478.433 535.056 478.713C538.467 479.017 541.766 477.704 543.287 475.438C545.02 472.533 542.542 469.716 540.03 467.446C535.581 463.413 530.634 459.693 525.248 456.335C523.238 455.091 520.702 454.402 518.075 454.384C515.025 454.384 511.143 454.793 509.41 456.729C507.409 458.617 506.551 461.027 507.036 463.395C507.036 463.395 499.412 460.552 493.278 463.521C489.502 465.471 486.788 468.344 485.619 471.628L477.613 477.018Z" fill="#FFBD9D"/>
<path d="M518.248 453.161C515.751 451.028 515.323 447.978 517.173 445.515C518.473 443.642 520.102 441.819 521.765 441.411C529.026 439.615 560.771 443.654 560.477 448.828C560.182 454.002 557.859 456.475 540.653 454.652C537.621 454.334 532.871 453.901 532.871 453.901L528.714 458.488L518.248 453.161Z" fill="#FFBD9D"/>
<path d="M523.932 474.851C519.766 469.799 513.691 465.748 506.447 463.192C507.629 463.331 508.768 463.624 509.809 464.058C515.025 465.912 519.404 468.832 522.424 472.467C523.124 473.186 523.635 473.994 523.932 474.851Z" fill="#EB996D"/>
<path d="M529.269 458.936C529.113 459.038 527.016 457.79 524.157 456.503C522.961 455.945 521.724 455.438 520.449 454.984C519.461 454.654 518.802 454.565 518.82 454.463C518.837 454.361 519.565 454.31 520.656 454.553C522.062 454.884 523.401 455.351 524.642 455.94C527.57 457.254 529.494 458.796 529.269 458.936Z" fill="#EB996D"/>
<path d="M534.606 454.12C532.542 454.297 530.449 454.122 528.489 453.61C527.058 453.288 525.725 452.759 524.573 452.054C523.706 451.506 523.342 451.06 523.429 450.996C525.096 451.789 526.881 452.442 528.749 452.935C530.736 453.234 532.693 453.629 534.606 454.12Z" fill="#EB996D"/>
<path d="M503.761 481.261C502.668 480.417 501.698 479.489 500.868 478.495C498.889 476.14 496.388 474.048 493.468 472.302C490.443 470.673 486.691 469.947 482.967 470.264C481.441 470.464 479.954 470.812 478.549 471.296C478.549 471.296 478.861 471.027 479.571 470.709C480.583 470.258 481.699 469.947 482.863 469.791C486.781 469.326 490.791 470.037 493.988 471.767C497.003 473.548 499.523 475.744 501.405 478.229C502.306 479.19 503.094 480.203 503.761 481.261Z" fill="#EB996D"/>
<path d="M589.415 347.019C589.415 347.019 547.717 340.629 488.476 299.769C429.236 258.91 400.835 204.147 393.753 204.517C386.671 204.887 355.13 194.453 297.222 290.17C239.313 385.886 263.126 407.732 274.923 407.497C286.721 407.263 366.859 390.008 417.143 393.746C467.426 397.484 532.292 416.155 532.292 416.155L589.415 347.019Z" fill="#7D0681" fill-opacity="0.62"/>
<path d="M678.631 398.096L664.772 418.064L658.564 427.042C650.051 439.316 629.965 444.538 612.855 438.926L523.327 416.886L573.848 329.253L663.495 363.349C680.66 369.907 687.42 385.422 678.631 398.096Z" fill="#7D0681" fill-opacity="0.62"/>
<path d="M678.631 398.096L664.772 418.064L658.564 427.042C650.051 439.316 629.965 444.538 612.855 438.926L523.327 416.886L573.848 329.253L663.495 363.349C680.66 369.907 687.42 385.422 678.631 398.096Z" fill="#DDDFD4"/>
<path d="M301.998 291.86C271.204 343.704 258.787 389.775 274.259 394.746C289.731 399.716 327.273 361.728 358.066 309.871C388.86 258.013 401.277 211.968 385.805 206.984C370.333 202.001 332.792 240.015 301.998 291.86Z" fill="#7D0681" fill-opacity="0.62"/>
<path d="M301.998 291.86C271.204 343.704 258.787 389.775 274.259 394.746C289.731 399.716 327.273 361.728 358.066 309.871C388.86 258.013 401.277 211.968 385.805 206.984C370.333 202.001 332.792 240.015 301.998 291.86Z" fill="#DDDFD4"/>
<path d="M686.771 426.699L662.507 421.335L677.11 400.302L695.373 408.421L686.771 426.699Z" fill="#7D0681" fill-opacity="0.62"/>
<path d="M677.11 400.302L662.506 421.335L667.499 422.438L679.292 401.264L677.11 400.302Z" fill="#DDDFD4"/>
<path d="M660.522 405.27C660.185 405.845 648.068 402.515 633.468 397.868C618.868 393.22 607.323 388.89 607.643 388.312C607.963 387.735 620.097 391.081 634.715 395.778C649.334 400.476 660.876 404.693 660.522 405.27Z" fill="#7D0681" fill-opacity="0.62"/>
<path d="M667.765 392.752C667.393 393.317 656.42 390.038 643.261 385.416C630.098 380.796 619.734 376.593 620.105 376.016C620.477 375.439 631.432 378.73 644.593 383.352C657.756 387.974 668.136 392.176 667.765 392.752Z" fill="#7D0681" fill-opacity="0.62"/>
<path d="M651.382 418.416C651.268 418.722 648.382 418.264 643.789 417.21C641.493 416.709 638.762 416.069 635.753 415.345C632.742 414.621 629.655 413.45 626.327 412.372C613.031 407.981 602.857 403.663 603.175 403.124C603.497 402.586 614.418 405.941 627.557 410.297C630.867 411.361 633.937 412.533 636.828 413.385C639.721 414.239 642.315 414.993 644.493 415.687C648.85 417.114 651.499 418.109 651.382 418.416Z" fill="#7D0681" fill-opacity="0.62"/>
<path d="M366.35 279.82C366.35 279.82 329.93 263.657 310.76 299.759C291.591 335.86 329.706 341.416 329.706 341.416C345.803 322.256 358.141 301.518 366.35 279.82Z" fill="#7D0681" fill-opacity="0.62"/>
<path d="M404.082 236.655C404.307 236.653 403.829 239.13 402.793 243.536C401.758 247.943 400.201 254.317 398.01 262.162L393.196 274.785C392.32 277.045 391.418 279.385 390.488 281.806L389.077 285.477C388.561 286.756 387.87 287.922 387.267 289.164L379.365 304.733C378.677 306.09 377.972 307.448 377.285 308.817C376.597 310.187 375.596 311.496 374.805 312.855L369.57 321.059L364.317 329.25C363.42 330.533 362.63 331.967 361.663 333.225C360.696 334.483 359.678 335.792 358.711 337.012L347.428 351.426C346.511 352.556 345.733 353.723 344.712 354.803L341.766 357.952L336.114 363.968L325.896 374.728C319.068 380.945 313.362 385.853 309.433 389.266C307.506 391.112 305.374 392.837 303.056 394.422C304.651 392.418 306.474 390.517 308.506 388.739C312.292 385.098 317.631 380.003 324.181 373.736L333.964 362.904L339.444 356.877C340.397 355.849 341.35 354.795 342.32 353.728C343.29 352.662 344.015 351.495 344.949 350.353L356.094 335.952L358.994 332.179C359.995 330.895 360.684 329.615 361.614 328.23L366.815 320.09C368.502 317.334 370.311 314.629 372.034 311.949C372.844 310.667 373.827 309.308 374.497 307.951L376.596 303.904L384.622 288.538C385.242 287.257 385.951 286.117 386.485 284.888C387.019 283.66 387.467 282.458 387.949 281.256L390.779 274.309L395.89 261.837L401.596 243.432C402.16 241.126 402.992 238.858 404.082 236.655Z" fill="#DDDFD4"/>
<path d="M0 6.99999C0 3.134 3.13401 0 7 0H1193C1196.87 0 1200 3.13401 1200 7V608C1200 611.866 1196.87 615 1193 615H6.99999C3.134 615 0 611.866 0 608V6.99999Z" fill="#7D0681" fill-opacity="0.06"/>
</svg>
