<svg width="1201" height="621" viewBox="0 0 1201 621" fill="none" xmlns="http://www.w3.org/2000/svg">
<rect width="1201" height="560" rx="7" fill="#7D0681" fill-opacity="0.06"/>
<path d="M544.137 294.919L520.077 98H231.646L255.707 294.919H544.137Z" fill="black"/>
<path d="M263.62 285.981H534.04L512.164 106.94H241.743L263.62 285.981Z" fill="white"/>
<path d="M409.282 116.953L409.479 118.362H467.603L467.406 116.953H409.282Z" fill="black"/>
<path d="M410.27 124.04L410.469 125.448H468.593L468.396 124.04H410.27Z" fill="black"/>
<path d="M411.261 131.124L411.458 132.532H469.582L469.385 131.124H411.261Z" fill="black"/>
<path d="M412.25 138.209L412.447 139.618H470.571L470.374 138.209H412.25Z" fill="black"/>
<path d="M413.239 145.296L413.436 146.704H471.56L471.363 145.296H413.239Z" fill="black"/>
<path d="M414.228 152.38L414.425 153.788H472.549L472.352 152.38H414.228Z" fill="black"/>
<path d="M275.996 174.37L276.193 175.778H334.317L334.12 174.37H275.996Z" fill="black"/>
<path d="M276.788 180.038L276.985 181.446H335.109L334.912 180.038H276.788Z" fill="black"/>
<path d="M277.579 185.707L277.776 187.115H335.9L335.703 185.707H277.579Z" fill="black"/>
<path d="M278.37 191.376L278.567 192.784H336.691L336.495 191.376H278.37Z" fill="black"/>
<path d="M279.163 197.044L279.359 198.452H337.484L337.287 197.044H279.163Z" fill="black"/>
<path d="M383.458 174.37L383.655 175.778H410.851L410.655 174.37H383.458Z" fill="black"/>
<path d="M384.25 180.038L384.447 181.446H411.644L411.447 180.038H384.25Z" fill="black"/>
<path d="M385.042 185.707L385.238 187.115H412.435L412.238 185.707H385.042Z" fill="black"/>
<path d="M279.105 221.483L287.279 280.028H288.687L280.513 221.483H279.105Z" fill="black"/>
<path d="M305.563 221.483L313.738 280.028H315.145L306.97 221.483H305.563Z" fill="black"/>
<path d="M332.023 221.483L340.198 280.028H341.605L333.43 221.483H332.023Z" fill="black"/>
<path d="M358.482 221.483L366.657 280.028H368.064L359.889 221.483H358.482Z" fill="black"/>
<path d="M277.313 224.013L277.509 225.421H362.584L362.388 224.013H277.313Z" fill="black"/>
<path d="M279.743 241.422L279.94 242.83H365.014L364.819 241.422H279.743Z" fill="black"/>
<path d="M282.175 258.831L282.372 260.239H367.446L367.25 258.831H282.175Z" fill="black"/>
<path d="M284.605 276.24L284.802 277.649H369.877L369.681 276.24H284.605Z" fill="black"/>
<path d="M418.638 259.535C419.545 266.031 414.999 271.315 408.504 271.315C402.008 271.315 395.987 266.031 395.079 259.535C394.173 253.041 398.719 247.757 405.213 247.757C411.708 247.757 417.73 253.041 418.638 259.535ZM411.603 259.535C411.237 256.919 408.813 254.791 406.197 254.791C403.58 254.791 401.749 256.919 402.115 259.535C402.48 262.153 404.904 264.28 407.52 264.28C410.138 264.28 411.968 262.153 411.603 259.535Z" fill="#D2DDF8"/>
<path d="M452.03 259.535C452.938 266.031 448.39 271.315 441.895 271.315C435.401 271.315 429.38 266.031 428.473 259.535C427.565 253.041 432.112 247.757 438.607 247.757C445.102 247.757 451.123 253.041 452.03 259.535ZM444.995 259.535C444.63 256.919 442.205 254.791 439.588 254.791C436.972 254.791 435.141 256.919 435.506 259.535C435.873 262.153 438.298 264.28 440.913 264.28C443.53 264.28 445.361 262.153 444.995 259.535Z" fill="#6E8FE3"/>
<path d="M485.423 259.535C486.33 266.031 481.784 271.315 475.289 271.315C468.794 271.315 462.773 266.031 461.865 259.535C460.959 253.041 465.505 247.757 471.999 247.757C478.495 247.757 484.516 253.041 485.423 259.535ZM478.388 259.535C478.023 256.919 475.599 254.791 472.982 254.791C470.365 254.791 468.535 256.919 468.9 259.535C469.266 262.153 471.691 264.28 474.306 264.28C476.924 264.28 478.754 262.153 478.388 259.535Z" fill="black"/>
<path d="M335.735 240.857C331.518 249.694 327.158 258.832 311.089 258.832C288.544 258.832 287.655 277.411 287.65 277.599L289.058 277.698C289.084 276.984 289.932 260.239 311.137 260.239C328.067 260.239 332.818 250.282 337.01 241.499C340.782 233.591 344.347 226.123 356.078 226.123L356.028 224.716C343.438 224.716 339.521 232.922 335.735 240.857Z" fill="black"/>
<path d="M340.164 256.288C335.468 261.347 330.611 266.578 313.15 266.578C288.965 266.578 287.695 277.109 287.653 277.557L289.054 277.742C289.064 277.644 290.385 267.985 313.197 267.985C331.258 267.985 336.318 262.536 341.212 257.263C345.414 252.737 349.383 248.46 362.174 248.46L362.126 247.053C348.736 247.053 344.573 251.539 340.164 256.288Z" fill="#D2DDF8"/>
<path d="M278.388 117.404C268.653 123.487 266.236 137.21 272.996 148.027C279.755 158.845 293.148 162.688 302.884 156.605C312.62 150.521 315.036 136.799 308.277 125.981C301.517 115.164 288.124 111.32 278.388 117.404Z" fill="#6F8FE4"/>
<path d="M334.288 117.404C324.553 123.487 322.136 137.21 328.896 148.027C335.655 158.845 349.048 162.688 358.784 156.605C368.52 150.521 370.936 136.799 364.177 125.981C357.417 115.164 344.024 111.32 334.288 117.404Z" fill="black"/>
<path d="M347.074 111.204V138.348L321.522 128.139C321.522 128.139 314.286 131.092 318.049 123.029C321.811 114.967 347.074 111.204 347.074 111.204Z" fill="white"/>
<path d="M292.517 110.129L291.711 138.617L277.032 163.908C277.032 163.908 258.924 128.942 262.686 120.879C266.449 112.817 292.517 110.129 292.517 110.129Z" fill="white"/>
<path d="M470.416 192.427L443.584 174.182L421.047 184.113L401.972 200.47L372.424 233.531H495.899L486.014 162.742L470.416 192.427Z" fill="black"/>
<path d="M478.115 215.511L458.765 196.573L439.212 210.971L415.239 205.144L372.422 233.53H495.899L490.2 192.72L478.115 215.511Z" fill="#E1E9FA"/>
<path d="M719.96 463.839L669.203 464.043C663.817 464.043 651.747 468.342 650.952 473.876L633.899 617.325H640.598L658.711 474.575C659.177 471.319 667.141 468.569 670.308 468.569L718.813 468.591C721.981 468.591 722.126 471.861 722.595 475.114L740.056 617.325H749.414L731.171 473.876C730.377 468.342 725.348 463.839 719.96 463.839Z" fill="#001A6C"/>
<path d="M827.523 463.515H765.251C759.865 463.515 752.882 468.175 752.088 473.901L735.044 617.326H741.741L759.848 474.623C760.313 471.255 763.381 468.41 766.551 468.41H826.224C829.392 468.41 827.908 470.557 828.376 473.924L854.616 617.326H863.118L838.735 473.901C837.942 468.175 832.912 463.515 827.523 463.515Z" fill="#001A6C"/>
<path d="M831.131 458.602H837.281C841.144 449.709 847.936 415.794 851.125 389.967C851.508 386.87 851.807 384.422 852.015 383.137L852.39 380.803L847.897 380.026C843.648 406.961 832.021 457.539 831.131 458.602Z" fill="#001A6C"/>
<path d="M827.764 458.602H832.595C836.687 450.229 843.673 415.999 847.019 389.129C847.395 386.113 847.691 383.733 847.895 382.461L843.401 381.684C840.514 417.424 828.807 457.174 827.764 458.602Z" fill="#A3C9C7"/>
<path d="M750.235 388.502C749.243 396.015 742.692 431.423 740.524 442.246C738.761 451.044 737.215 455.908 736.058 458.603H740.661C744.482 449.114 751.338 414.986 754.747 389.143C755.105 386.438 755.948 380.806 755.948 380.806L751.456 380.025C751.456 380.025 750.598 385.759 750.235 388.502Z" fill="#001A6C"/>
<path d="M731.715 458.602H736.431C740.403 449.927 747.291 415.777 750.559 389.302C750.943 386.199 751.246 383.749 751.452 382.461L746.959 381.684C742.065 432.868 732.832 456.688 731.715 458.602Z" fill="#A3C9C7"/>
<path d="M869.554 286.353H778.322C769.691 286.353 761.589 292.969 760.323 301.059L748.352 384.101C748.352 384.101 777.881 389.731 814.986 389.731C852.089 389.731 866.089 384.101 866.089 384.101L882.951 301.059C884.219 292.969 878.189 286.353 869.554 286.353Z" fill="#1D3599"/>
<path d="M861.786 286.353H770.554C761.922 286.353 753.82 292.969 752.556 301.059L735.692 384.101C735.692 384.101 770.112 389.731 807.217 389.731C844.321 389.731 858.321 384.101 858.321 384.101L875.184 301.059C876.452 292.969 870.422 286.353 861.786 286.353Z" fill="#A3C9C7"/>
<path d="M732.426 457.168C732.414 457.416 732.374 457.654 732.374 457.906C732.374 463.799 735.708 468.578 739.816 468.578H835.223C839.334 468.578 842.669 463.799 842.669 457.906C842.669 457.654 842.629 457.416 842.618 457.168H732.426Z" fill="#1D3599"/>
<path d="M639.023 457.168C639.01 457.416 638.965 457.654 638.965 457.906C638.965 463.799 642.759 468.578 647.437 468.578H759.577C764.255 468.578 768.051 463.799 768.051 457.906C768.051 457.654 768.006 457.416 767.993 457.168H639.023Z" fill="#A3C9C7"/>
<path d="M669.738 293.998C652.121 284.251 596.554 273.706 588.345 264.427C580.138 255.148 568.525 247.127 559.498 250.492C550.283 253.927 546.757 263.672 559.3 268.12C564.905 270.106 568.038 276.98 581.495 280.005C594.984 283.035 633.125 309.754 652.04 316.92C670.788 324.022 681.659 300.591 669.738 293.998Z" fill="#FABBBD"/>
<path d="M743.553 281.773C732.136 293.016 677.157 315.024 666.169 320.109C652.927 326.238 640.189 313.384 646.668 301.694C652.188 291.735 717.205 254.767 725.789 252.203C741.288 247.572 757.84 267.703 743.553 281.773Z" fill="#FABBBD"/>
<path d="M697.244 312.668C715.849 303.69 745.002 282.133 750.788 276.433C765.075 262.364 748.523 242.234 733.025 246.863C728.19 248.307 699.049 262.732 677.146 277.37C674.246 284.745 682.907 307.029 697.244 312.668Z" fill="black"/>
<path d="M779.972 213.169C779.972 213.169 775.441 238.551 786.764 238.808C798.086 239.065 819.005 241.952 826.208 251.957C833.409 261.963 841.973 349.875 832.602 413.794C832.602 413.794 756.534 437.399 719.273 398.918C719.273 398.918 707.528 271.892 718.931 254.604C728.443 240.185 751.312 241.374 751.312 241.374C751.312 241.374 757.761 235.953 755.533 223.801C750.09 194.127 779.972 213.169 779.972 213.169Z" fill="black"/>
<path d="M826.208 251.957C824.726 249.9 822.659 248.147 820.22 246.652L814.131 318.475C811.538 349.06 799.883 378.176 780.656 402.103L773.758 410.684C811.02 449.165 832.602 413.794 832.602 413.794C841.973 349.875 833.409 261.963 826.208 251.957Z" fill="#A3C9C7"/>
<path d="M795.77 239.444C786.866 255.288 771.264 264.017 757.471 259.588C749.553 257.05 743.677 250.637 740.474 242.227C746.551 241.123 751.315 241.376 751.315 241.376C751.315 241.376 757.758 235.956 755.53 223.801C750.088 194.122 779.978 213.172 779.978 213.172C779.978 213.172 775.441 238.549 786.764 238.806C789.348 238.864 792.447 239.059 795.77 239.444Z" fill="#FABBBD"/>
<path d="M786.763 238.806C775.441 238.549 779.978 213.171 779.978 213.171C779.978 213.171 778.437 212.192 776.123 211.023L775.856 222.85C775.489 239.068 762.043 251.918 745.826 251.551C748.93 255.298 752.851 258.106 757.471 259.588C771.265 264.017 786.867 255.288 795.77 239.444C792.448 239.058 789.348 238.864 786.763 238.806Z" fill="#DA91A7"/>
<path d="M817.197 342.287C801.114 330.177 741.668 308.896 734.836 298.563C728.005 288.229 711.731 275.591 702.324 277.661C692.718 279.776 694.603 287.209 699.664 295.089C702.877 300.093 707.081 305.083 719.983 309.956C732.917 314.841 778.74 352.776 796.47 362.513C814.043 372.163 828.079 350.481 817.197 342.287Z" fill="#FABBBD"/>
<path d="M828.451 263.857C832.135 279.45 822.03 339.114 820.672 351.147C819.039 365.647 804.147 371.402 797.516 359.798C791.868 349.91 789.911 269.728 792.173 261.06C796.26 245.41 823.839 244.342 828.451 263.857Z" fill="#FABBBD"/>
<path d="M829.571 319.507C831.858 296.367 831.527 271.863 829.417 262.937C824.404 241.717 794.25 244.564 789.808 261.581C788.698 265.832 788.089 289.793 788.65 312.761C804.781 321.587 826.355 320.967 829.571 319.507Z" fill="black"/>
<path d="M573.148 516.088C573.148 516.088 573.594 520.339 570.617 523.212C567.64 526.083 553.882 536.993 557.324 541.814C559.163 544.39 567.982 547.614 571.191 549.258C573.731 550.56 576.815 549.189 577.525 546.425C578.465 542.773 581.348 534.737 582.535 532.235C584.663 527.745 592.253 510.071 592.253 510.071L576.383 504.71L573.148 516.088Z" fill="#FABBBD"/>
<path d="M557.262 541.951C554.203 538.056 559.184 532.364 554.17 531.274C552.222 536.53 546.474 539.285 534.404 537.369C523.415 535.625 518.593 548.388 518.593 548.388L575.625 557.441C575.625 557.441 581.295 556.122 576.101 542.723C570.124 541.774 561.878 547.828 557.262 541.951Z" fill="#0B1440"/>
<path d="M833.193 406.401C838.063 436.169 810.203 460.807 772.655 456.681C735.107 452.557 676.109 424.106 649.077 418.302C649.077 418.302 614.725 374.734 637.445 365.104C694.136 341.076 833.193 406.401 833.193 406.401Z" fill="#3D4465"/>
<path d="M613.809 393.009C598.303 428.262 568.32 494.929 558.607 505.935C558.607 505.935 570.906 520.765 586.383 529.971C586.383 529.971 657.843 422.399 664.622 409.743C671.759 396.421 661.23 386.74 649.019 380.41C635.902 373.61 619.757 379.483 613.809 393.009Z" fill="#3E4565"/>
<path d="M772.654 456.682C772.654 456.682 689.555 467.854 662.366 465.974C649.259 465.067 603.021 452.217 614.833 421.62C626.633 391.05 708.651 412.16 772.654 456.682Z" fill="#29304F"/>
<path d="M621.67 413.498C672.491 403.069 698.88 428.41 694.666 443.906C688.097 468.069 652.233 462.392 650.269 463.687C655.213 465.033 659.547 465.778 662.367 465.973C689.555 467.853 772.655 456.682 772.655 456.682C715.654 417.031 645.407 395.602 621.67 413.498Z" fill="#141517"/>
<path d="M565.477 602.899C583.92 600.57 589.086 577.203 592.16 565.78L609.519 572.418C609.519 572.418 599.18 591.946 599.978 605.246C600.775 618.546 596.995 617.295 596.995 617.295H541.97C541.97 617.295 547.034 605.226 565.477 602.899Z" fill="#FABBBD"/>
<path d="M565.477 602.898C571.045 602.195 576.79 598.706 579.645 595.035C581.497 592.444 590.497 595.303 591.994 600.32C591.994 600.32 595.645 602.946 599.959 602.542C599.949 603.464 599.926 604.379 599.978 605.245C600.775 618.545 596.995 617.295 596.995 617.295H541.97C541.97 617.295 547.034 605.226 565.477 602.898Z" fill="#0B1440"/>
<path d="M613.275 427.151C613.275 427.151 591.359 541.961 583.185 576.548C583.185 576.548 600.696 585.587 613.196 583.661C613.196 583.661 672.22 462.873 651.472 444.44C639.82 434.088 613.275 427.151 613.275 427.151Z" fill="#292F4F"/>
<path d="M748.338 171.793L743.865 206.971C742.546 217.346 750.341 226.885 761.275 228.276C772.21 229.666 782.144 222.382 783.463 212.006L783.572 211.148C783.572 211.148 795.001 211.79 796.464 200.28C797.929 188.768 789.78 192.505 789.78 192.505L791.712 177.31L748.338 171.793Z" fill="#FABBBD"/>
<path d="M789.78 192.504L791.712 177.309L776.313 175.35C776.301 175.463 776.301 175.575 776.287 175.688L771.223 215.504C770.337 222.463 763.112 227.283 756.385 226.187C754.298 225.848 752.442 225.009 750.875 223.83C753.735 226.155 757.285 227.767 761.275 228.275C772.21 229.665 782.144 222.382 783.463 212.006L783.572 211.148C783.572 211.148 795.001 211.789 796.465 200.279C797.929 188.767 789.78 192.504 789.78 192.504Z" fill="#DA91A7"/>
<path d="M789.456 192.848C789.456 192.848 784.829 202.741 784.211 189.936C783.594 177.129 779.656 177.191 765.541 176.331C751.426 175.473 735.583 167.535 745.327 151.246C754.908 135.23 780.08 151.792 780.08 151.792C780.08 151.792 802.838 147.948 804.32 165.73C805.803 183.51 789.456 192.848 789.456 192.848Z" fill="#0B1440"/>
<path d="M762.527 190.298L762.405 191.258L757.895 190.685L758.018 189.724L762.527 190.298Z" fill="#02126A"/>
<path d="M746.024 190.267L746.146 189.308L740.86 188.585L740.737 189.546L746.024 190.267Z" fill="#02126A"/>
<path d="M769.637 203.529C775.654 204.156 779.257 198.169 779.804 193.867C780.316 189.846 777.404 187.224 771.604 186.486C765.791 185.784 762.328 187.56 761.817 191.581C761.503 194.043 761.995 196.799 763.132 198.951C764.099 200.787 765.981 203.067 769.44 203.507C769.505 203.515 769.572 203.522 769.637 203.529ZM771.002 187.391C771.163 187.407 771.324 187.426 771.482 187.447C775.148 187.913 779.4 189.384 778.846 193.745C778.347 197.664 775.111 203.128 769.735 202.567C769.677 202.561 769.62 202.554 769.562 202.546C766.515 202.159 764.849 200.132 763.988 198.5C762.941 196.517 762.488 193.975 762.777 191.701C763.308 187.529 767.436 187.019 771.002 187.391Z" fill="#02126A"/>
<path d="M748.157 200.797C754.173 201.424 757.777 195.437 758.325 191.135C758.836 187.115 755.924 184.493 750.124 183.754C744.322 183.033 740.849 184.827 740.337 188.849C739.785 193.196 741.825 199.996 747.959 200.775C748.025 200.783 748.091 200.79 748.157 200.797ZM749.523 184.659C749.685 184.676 749.844 184.695 750.003 184.716C753.667 185.182 757.919 186.653 757.365 191.013C756.861 194.975 753.561 200.565 748.082 199.814C742.602 199.119 740.794 192.932 741.297 188.969C741.828 184.798 745.957 184.288 749.523 184.659Z" fill="#02126A"/>
<path d="M788.085 195.566L788.209 194.606L778.995 193.434L778.873 194.395L788.085 195.566Z" fill="#02126A"/>
<path d="M895.539 617.327H907.22V382.238H895.539V617.327Z" fill="#02126A"/>
<path d="M405.74 617.326H416.133V491.176V382.236H405.74V617.326Z" fill="#02126A"/>
<path d="M778.832 382.231H921.779V376.177H778.832V382.231Z" fill="#02126A"/>
<path d="M187.325 382.231H778.831V376.177H187.325V382.231Z" fill="#1D3599"/>
<path d="M747.248 617.327H760.371V382.238H747.248V617.327Z" fill="#1D3599"/>
<path d="M210.364 617.326H222.062V491.176V382.236H210.364V617.326Z" fill="#1D3599"/>
<path d="M810.153 376.175H953.097V365.394H810.153V376.175Z" fill="#A3C9C7"/>
<path d="M156 376.175H810.948V365.394H156V376.175Z" fill="#6E8FE3"/>
<path d="M627.498 364.674C627.498 365.071 627.82 365.393 628.217 365.393H752.458C753.253 365.393 753.899 364.751 753.899 363.955V360.485H627.498V364.674Z" fill="#141517"/>
<path d="M737.666 359.023V360.484H742.102V358.54H738.15C737.885 358.54 737.666 358.756 737.666 359.023Z" fill="#141517"/>
<path d="M732.521 359.023V360.484H736.957V358.54H733.005C732.737 358.54 732.521 358.756 732.521 359.023Z" fill="#141517"/>
<path d="M727.376 359.023V360.484H731.812V358.54H727.859C727.593 358.54 727.376 358.756 727.376 359.023Z" fill="#141517"/>
<path d="M705.937 359.023V360.484H710.372V358.54H706.42C706.154 358.54 705.937 358.756 705.937 359.023Z" fill="#141517"/>
<path d="M700.791 359.023V360.484H705.226V358.54H701.275C701.009 358.54 700.791 358.756 700.791 359.023Z" fill="#141517"/>
<path d="M640.39 359.023V360.484H644.825V358.54H640.873C640.606 358.54 640.39 358.756 640.39 359.023Z" fill="#141517"/>
<path d="M635.244 359.023V360.484H639.679V358.54H635.727C635.461 358.54 635.244 358.756 635.244 359.023Z" fill="#141517"/>
<path d="M711.235 359.023V360.484H726.485V358.54H711.719C711.452 358.54 711.235 358.756 711.235 359.023Z" fill="#141517"/>
<path d="M618.539 359.023V360.484H633.789V358.54H619.023C618.755 358.54 618.539 358.756 618.539 359.023Z" fill="#141517"/>
<path d="M646.015 359.023V360.484H698.967V358.54H646.501C646.234 358.54 646.015 358.756 646.015 359.023Z" fill="#141517"/>
<path d="M602.173 358.539H591.423C590.818 358.539 590.326 359.03 590.326 359.638V360.485H602.656V359.022C602.656 358.755 602.44 358.539 602.173 358.539Z" fill="#E1E9FA"/>
<path d="M587.322 358.539H576.572C575.967 358.539 575.475 359.03 575.475 359.638V360.485H587.805V359.022C587.805 358.755 587.589 358.539 587.322 358.539Z" fill="#E1E9FA"/>
<path d="M572.468 358.539H561.72C561.114 358.539 560.621 359.03 560.621 359.638V360.485H572.954V359.022C572.954 358.755 572.737 358.539 572.468 358.539Z" fill="#E1E9FA"/>
<path d="M557.617 358.539H546.868C546.262 358.539 545.77 359.03 545.77 359.638V360.485H558.1V359.022C558.1 358.755 557.884 358.539 557.617 358.539Z" fill="#E1E9FA"/>
<path d="M540.132 358.539H534.507C533.901 358.539 533.408 359.03 533.408 359.638V360.485H540.614V359.022C540.614 358.755 540.398 358.539 540.132 358.539Z" fill="#E1E9FA"/>
<path d="M531.375 358.539H525.752C525.144 358.539 524.652 359.03 524.652 359.638V360.485H531.859V359.022C531.859 358.755 531.642 358.539 531.375 358.539Z" fill="#E1E9FA"/>
<path d="M523.133 358.539H517.51C516.902 358.539 516.41 359.03 516.41 359.638V360.485H523.617V359.022C523.617 358.755 523.401 358.539 523.133 358.539Z" fill="#E1E9FA"/>
<path d="M619.622 267.027C618.531 263.083 615.622 260.735 611.07 260.735L639.308 364.823C639.308 364.823 644.779 363.262 643.424 357.941C642.293 353.5 625.511 288.294 619.622 267.027Z" fill="#141517"/>
<path d="M610.541 260.735H478.215C476.365 260.735 475.009 262.476 475.464 264.269L499.82 360.484H638.919L614.435 263.765C613.983 261.983 612.378 260.735 610.541 260.735Z" fill="#02126A"/>
<path d="M500.332 364.674C500.332 365.071 500.655 365.393 501.052 365.393H637.59C638.386 365.393 639.029 364.751 639.029 363.955V360.485H500.332V364.674Z" fill="#120D80"/>
<path d="M534.018 353.061H497.879L495.329 342.741H532.764C534.021 342.741 535.119 343.588 535.437 344.804L536.693 349.598C537.152 351.35 535.83 353.061 534.018 353.061Z" fill="black"/>
<path d="M340.713 447.478H333.017L358.942 617.326H366.639L340.713 447.478Z" fill="black"/>
<path d="M431.249 447.478H423.552L449.478 617.326H457.174L431.249 447.478Z" fill="black"/>
<path d="M508.682 589.4C500.799 582.592 494.613 564.05 488.149 548.885L466.486 557.698C471.414 564.876 483.589 576.45 486.001 601.288C487.717 618.947 523.401 602.111 508.682 589.4Z" fill="#FABBBD"/>
<path d="M438.28 418.979C438.28 418.979 487.425 545.557 494.133 559.294C494.133 559.294 484.58 570.119 471.629 570.496C471.629 570.496 399.464 454.978 392.734 442.005C386.005 429.031 438.28 418.979 438.28 418.979Z" fill="black"/>
<path d="M523.432 597.663C517.8 596.005 512.11 589.237 507.47 584.442C506.076 582.964 504.709 589.449 503.162 591.587C500.061 595.876 486.532 597.885 482.384 595.054C482.611 596.276 482.711 597.285 482.842 598.434C484.865 616.061 489.595 614.316 489.595 614.316L549.627 613.268C549.627 613.268 542.09 603.155 523.432 597.663Z" fill="#0B1440"/>
<path d="M333.969 218.966C333.969 218.966 326.603 221.539 326.791 227.297C326.98 233.055 331.373 237.669 331.373 237.669C331.373 237.669 316.148 245.362 300.572 242.875C300.572 242.875 304.813 226.939 301.689 211.59C298.564 196.243 333.969 218.966 333.969 218.966Z" fill="#FABBBD"/>
<path d="M319.985 232.581C318.535 225.343 323.2 218.791 329.7 216.364C320.384 210.879 299.243 199.583 301.688 211.591C304.812 226.94 300.573 242.875 300.573 242.875C308.241 244.099 315.818 242.856 321.541 241.279C321 238.385 320.565 235.469 319.985 232.581Z" fill="#DA91A7"/>
<path d="M348.069 174.121C348.069 174.121 349.851 184.477 349.21 193.006C348.567 201.536 351.922 212.768 343.895 222.534C335.867 232.298 316.947 221.902 312.425 210.331C307.902 198.759 311.551 189.555 317.486 184.104C323.423 178.652 348.069 174.121 348.069 174.121Z" fill="#FABBBD"/>
<path d="M335.277 211.079C335.352 206.877 339.727 175.897 339.727 175.897C331.998 177.71 321.162 180.731 317.488 184.104C311.551 189.556 307.902 198.761 312.425 210.331C316.705 221.285 333.881 231.173 342.513 223.915C338.149 221.261 335.185 216.265 335.277 211.079Z" fill="#DA91A7"/>
<path d="M339.073 181.324C339.073 181.324 335.838 184.568 334.533 191.992C333.227 199.415 331.948 203.473 329.35 198.609C326.751 193.744 325.929 185.904 319.612 190.73C315.434 193.919 315.615 200.071 316.967 203.414C318.318 206.757 314.172 214.247 305.348 211.585C296.524 208.926 290.303 185.303 290.303 185.303C290.303 185.303 330.242 172.057 339.073 181.324Z" fill="#151618"/>
<path d="M342.548 151.435C342.548 151.435 354.399 154.175 355.664 164.159C356.787 173.025 352.135 181.77 336.362 181.343C320.587 180.916 319.707 190.755 311.422 193.522C303.135 196.29 294.706 193.975 290.561 185.831C286.258 177.381 287.371 166.985 297.453 158.377C307.536 149.77 341.206 137.131 342.548 151.435Z" fill="#141517"/>
<path d="M406.184 601.434C403.213 598.277 409.5 574.581 414.706 559.663L392.308 554.394C386.307 569.336 387.587 582.567 378.947 604.056C375.482 612.673 414.956 610.754 406.184 601.434Z" fill="#FABBBD"/>
<path d="M417.091 602.976C410.401 602.976 406.905 600.681 405.44 597.059C401.079 596.192 401.259 598.801 398.256 601.013C389.373 607.555 380.265 601.895 378.948 604.055C370.375 618.116 380.437 620.372 380.437 620.372H436.825C436.825 620.372 436.825 602.976 417.091 602.976Z" fill="#0B1440"/>
<path d="M459.394 433.172C459.394 433.172 416.161 562.794 411.478 577.669C411.478 577.669 396.81 578.968 386.962 570.154C386.962 570.154 402.025 464.069 406.156 449.745C410.288 435.422 459.394 433.172 459.394 433.172Z" fill="black"/>
<path d="M267.515 375.681C267.515 395.459 246.404 443.513 287.807 443.057C329.123 442.602 455.944 443.057 455.944 443.057C455.944 443.057 464.586 426.044 452.84 415.377C441.092 404.709 369.971 389.098 361.305 378.244C352.639 367.388 267.515 375.681 267.515 375.681Z" fill="black"/>
<path d="M325.136 438.558C251.14 438.558 270.727 381.916 277.313 374.836C266.505 375.581 267.514 375.681 267.514 375.681C267.514 395.459 246.404 443.511 287.806 443.057C317.394 442.731 390.826 442.872 430.137 442.977C425.694 441.915 335.198 438.558 325.136 438.558Z" fill="black"/>
<path d="M335.049 235.895C343.159 234.575 358.747 242.505 362.232 258.901C366.836 280.562 369.293 311.649 362.776 329.047C356.258 346.445 378.728 360.856 363.754 370.941C348.781 381.026 273.089 398.083 267.825 387.606C262.562 377.129 262.473 298.322 263.83 282.438C265.177 266.691 270.932 254.148 276.445 250.215C281.96 246.283 320.163 238.318 335.049 235.895Z" fill="black"/>
<path d="M274.722 366.065C272.318 356.813 269.331 346.909 269.463 337.342C270.377 270.832 284.936 260.731 290.162 253.867C296.341 245.753 306.358 248.095 316.356 245.616C329.869 242.264 333.858 236.117 333.971 236.074C318.406 238.686 281.833 246.372 276.447 250.214C270.932 254.148 265.177 266.69 263.832 282.437C262.473 298.321 262.562 377.129 267.826 387.606C270.134 392.2 285.989 391.499 304.327 388.413C290.781 388.037 278.697 381.365 274.722 366.065Z" fill="#EC004E"/>
<path d="M335.049 235.895C329.615 234.394 325.73 237.154 320.294 233.751C310.564 227.66 299.162 230.712 299.162 230.712L289.289 245.691C289.289 245.691 320.487 251.103 335.049 235.895Z" fill="white"/>
<path d="M527.391 364.329C516.471 361.403 509.148 370.195 501.127 363.78C493.105 357.366 488.833 356.443 491.29 348.991C493.749 341.539 499.697 343.78 512.076 347.097C524.158 350.334 543.604 368.673 527.391 364.329Z" fill="#FABBBD"/>
<path d="M333.29 238.896C338.565 231.651 356.848 236.153 371.295 248.268C385.741 260.381 421.106 310.309 429.721 321.556C437.745 332.033 425.156 355.933 402.678 341.108C380.202 326.284 360.07 300.338 349.087 281.137C338.104 261.936 327.566 246.757 333.29 238.896Z" fill="black"/>
<path d="M350.05 362.412H233.97C231.307 362.412 228.956 360.497 228.275 357.774L220.082 324.94C219.126 321.108 221.817 317.413 225.562 317.413H341.644C344.307 317.413 346.659 319.329 347.338 322.052L355.531 354.885C356.486 358.717 353.796 362.412 350.05 362.412Z" fill="#6E8FE3"/>
<path d="M346.708 362.412H233.753C231.163 362.412 228.906 360.644 228.292 358.126L220.875 327.781C220.011 324.24 222.692 320.825 226.336 320.825H339.294C341.885 320.825 344.139 322.594 344.754 325.112L352.17 355.457C353.036 358.998 350.353 362.412 346.708 362.412Z" fill="#D2DDF8"/>
<path d="M461.616 449.573H373.04V440.457H461.616V449.573Z" fill="#A3C9C7"/>
<path d="M355.013 447.479H362.71L336.784 617.325H329.088L355.013 447.479Z" fill="white"/>
<path d="M264.477 447.479H272.174L246.249 617.325H238.552L264.477 447.479Z" fill="white"/>
<path d="M373.038 449.573H255.362V440.457H373.038V449.573Z" fill="#6E8FE3"/>
<path d="M360.57 446.603C359.156 446.603 357.865 445.652 357.498 444.219L329.944 336.769C329.507 335.071 330.533 333.343 332.229 332.908C333.932 332.465 335.657 333.495 336.091 335.193L363.645 442.641C364.081 444.34 363.057 446.069 361.359 446.504C361.095 446.572 360.83 446.603 360.57 446.603Z" fill="black"/>
<path d="M357.397 446.603C355.983 446.603 354.691 445.652 354.325 444.219L326.77 336.769C326.335 335.071 327.359 333.343 329.056 332.908C330.762 332.465 332.483 333.495 332.918 335.193L360.472 442.641C360.909 444.34 359.883 446.069 358.187 446.504C357.921 446.572 357.657 446.603 357.397 446.603Z" fill="white"/>
<path d="M270.724 446.603C269.31 446.603 268.018 445.652 267.653 444.219L240.099 336.769C239.663 335.071 240.686 333.343 242.384 332.908C244.086 332.465 245.812 333.495 246.245 335.193L273.799 442.641C274.235 444.34 273.21 446.069 271.514 446.504C271.25 446.572 270.984 446.603 270.724 446.603Z" fill="black"/>
<path d="M267.552 446.603C266.137 446.603 264.846 445.652 264.479 444.219L236.925 336.769C236.488 335.071 237.514 333.343 239.21 332.908C240.916 332.465 242.637 333.495 243.073 335.193L270.626 442.641C271.063 444.34 270.038 446.069 268.341 446.504C268.076 446.572 267.812 446.603 267.552 446.603Z" fill="white"/>
<path d="M410.968 345.379C428.953 352.698 459.503 358.384 497.369 367.317C497.369 367.317 505.711 354.047 502.464 342.692C502.464 342.692 431.944 319.584 424.26 317.735C416.578 315.886 392.251 337.763 410.968 345.379Z" fill="black"/>
</svg>
