<svg width="455" height="443" viewBox="0 0 455 443" fill="none" xmlns="http://www.w3.org/2000/svg">
<path d="M1.08063 443L33.0634 329.241C13.3278 295.942 2.95751 258.195 2.97647 219.488C3.03334 98.4752 104.176 0 228.449 0C288.755 0.0184583 345.365 22.8883 387.946 64.3827C430.507 105.877 453.94 161.031 453.921 219.691C453.864 340.722 352.721 439.198 228.449 439.198C190.721 439.179 153.544 429.968 120.613 412.47L1.08063 443ZM126.149 372.729C157.923 391.095 188.257 402.096 228.373 402.115C331.658 402.115 415.796 320.271 415.852 219.654C415.89 118.835 332.151 37.1012 228.525 37.0643C125.163 37.0643 41.0829 118.909 41.0449 219.507C41.026 260.576 53.3869 291.328 74.1463 323.501L55.2069 390.837L126.149 372.729ZM342.029 271.873C340.626 269.584 336.872 268.218 331.222 265.468C325.592 262.717 297.893 249.446 292.718 247.619C287.561 245.791 283.807 244.868 280.035 250.369C276.281 255.851 265.474 268.218 262.195 271.873C258.915 275.528 255.616 275.989 249.985 273.239C244.355 270.488 226.193 264.711 204.675 246.013C187.935 231.468 176.616 213.508 173.337 208.007C170.057 202.525 172.995 199.553 175.801 196.821C178.342 194.366 181.432 190.416 184.257 187.204C187.119 184.03 188.048 181.741 189.944 178.068C191.821 174.413 190.892 171.201 189.47 168.451C188.048 165.719 176.787 138.714 172.104 127.732C167.516 117.044 162.872 118.484 159.421 118.318L148.615 118.133C144.861 118.133 138.757 119.499 133.6 125C128.443 130.5 113.883 143.754 113.883 170.758C113.883 197.763 134.074 223.844 136.88 227.499C139.704 231.154 176.597 286.566 233.112 310.322C246.554 315.97 257.057 319.348 265.228 321.876C278.726 326.048 291.011 325.457 300.718 324.055C311.543 322.486 334.047 310.783 338.749 297.973C343.45 285.144 343.45 274.162 342.029 271.873Z" fill="black"/>
</svg>
